<?xml version="1.0" encoding="UTF-8"?>
<svg width="34px" height="22px" viewBox="0 0 34 22" version="1.1" xmlns="http://www.w3.org/2000/svg" xmlns:xlink="http://www.w3.org/1999/xlink">
    <!-- Generator: Sketch 49 (51002) - http://www.bohemiancoding.com/sketch -->
    <title>Slice 1</title>
    <desc>Created with Sketch.</desc>
    <defs></defs>
    <g id="Page-1" stroke="none" stroke-width="1" fill="none" fill-rule="evenodd">
        <g id="Group-4" fill-rule="nonzero">
            <g id="Group-3" fill="#010C93">
                <path d="M32.1406774,1.14270503 L1.85934916,1.14270503 C1.64078353,1.14270503 1.44164306,1.23931788 1.29698762,1.39489289 C1.1523315,1.55049646 1.06250042,1.76464152 1.06250042,1.9997338 L1.06250042,20.0002662 C1.06250042,20.2353585 1.15233217,20.4495035 1.29698762,20.6051071 C1.44164373,20.7606828 1.6407842,20.857295 1.85934916,20.857295 L32.1406774,20.857295 C32.359243,20.857295 32.5583569,20.7606821 32.703013,20.6051071 C32.8476692,20.4495035 32.9375002,20.2353585 32.9375002,20.0002662 L32.9375002,1.9997338 C32.9375002,1.76464152 32.8476685,1.55049646 32.703013,1.39489289 C32.5583569,1.23931717 32.359243,1.14270503 32.1406774,1.14270503 Z M1.85934916,0 L32.1406774,0 C32.6525549,0 33.117527,0.224829357 33.45424,0.58695758 C33.7909511,0.949142225 34,1.4492428 34,1.9997338 L34,20.0002662 C34,20.5507551 33.7909511,21.0508549 33.45424,21.4130424 C33.117529,21.7751706 32.6525569,22 32.1406774,22 L1.85934916,22 C1.34747166,22 0.882473001,21.7751706 0.545759979,21.4130424 C0.209048949,21.0508578 0,20.5507572 0,20.0002662 L0,1.9997338 C0,1.44924494 0.209048949,0.949145081 0.545759979,0.58695758 C0.882471009,0.224829357 1.34746967,3.17164359e-15 1.85934916,0 Z" id="Shape"></path>
            </g>
            <path d="M19.7646228,4.04701798 L11.7215634,12.4795738 C11.5315699,12.678768 11.4049075,12.9222276 11.320466,13.1878199 L10.0327321,17.8135527 C9.94829048,18.079145 10.0327321,18.36687 10.2227256,18.5881969 C10.3704983,18.7431257 10.5604919,18.8095238 10.7504854,18.8095238 C10.8138166,18.8095238 10.8982581,18.8095238 10.9615893,18.7873911 L15.3736612,17.4372969 C15.6269859,17.3487661 15.8592003,17.21597 16.0491938,17.0167757 L24.1133635,8.56208723 C24.6833441,7.96450453 25,7.14559491 25,6.28241991 C25,5.41924491 24.6833441,4.62246798 24.1133635,4.00275259 C22.9100712,2.78545451 20.9679151,2.78545451 19.7646228,4.04701798 Z M15.4792132,15.4232219 L13.2415116,13.0771565 L19.3635253,6.65867568 L21.6012269,9.00474108 L15.4792132,15.4232219 Z M12.5026479,14.4715161 L14.1492585,16.1978661 L11.8271154,16.9061123 L12.5026479,14.4715161 Z M23.0578439,7.4775853 L22.6567465,7.89810646 L20.4190449,5.55204106 L20.8201424,5.13151991 C21.1367983,4.79952952 21.5378957,4.64460067 21.9389932,4.64460067 C22.3400906,4.64460067 22.7411881,4.79952952 23.0578439,5.13151991 C23.6700453,5.79550068 23.6700453,6.83573722 23.0578439,7.4775853 Z" id="Shape" fill="#001287"></path>
        </g>
    </g>
</svg>