<?xml version="1.0" encoding="UTF-8"?>
<svg width="34px" height="22px" viewBox="0 0 34 22" version="1.1" xmlns="http://www.w3.org/2000/svg" xmlns:xlink="http://www.w3.org/1999/xlink">
    <!-- Generator: Sketch 49 (51002) - http://www.bohemiancoding.com/sketch -->
    <title>Slice 1</title>
    <desc>Created with Sketch.</desc>
    <defs></defs>
    <g id="Page-1" stroke="none" stroke-width="1" fill="none" fill-rule="evenodd">
        <g id="Group" fill-rule="nonzero">
            <path d="M32.1406774,1.14270503 L1.85934916,1.14270503 C1.64078353,1.14270503 1.44164306,1.23931788 1.29698762,1.39489289 C1.1523315,1.55049646 1.06250042,1.76464152 1.06250042,1.9997338 L1.06250042,20.0002662 C1.06250042,20.2353585 1.15233217,20.4495035 1.29698762,20.6051071 C1.44164373,20.7606828 1.6407842,20.857295 1.85934916,20.857295 L32.1406774,20.857295 C32.359243,20.857295 32.5583569,20.7606821 32.703013,20.6051071 C32.8476692,20.4495035 32.9375002,20.2353585 32.9375002,20.0002662 L32.9375002,1.9997338 C32.9375002,1.76464152 32.8476685,1.55049646 32.703013,1.39489289 C32.5583569,1.23931717 32.359243,1.14270503 32.1406774,1.14270503 Z M1.85934916,0 L32.1406774,0 C32.6525549,0 33.117527,0.224829357 33.45424,0.58695758 C33.7909511,0.949142225 34,1.4492428 34,1.9997338 L34,20.0002662 C34,20.5507551 33.7909511,21.0508549 33.45424,21.4130424 C33.117529,21.7751706 32.6525569,22 32.1406774,22 L1.85934916,22 C1.34747166,22 0.882473001,21.7751706 0.545759979,21.4130424 C0.209048949,21.0508578 0,20.5507572 0,20.0002662 L0,1.9997338 C0,1.44924494 0.209048949,0.949145081 0.545759979,0.58695758 C0.882471009,0.224829357 1.34746967,3.17164359e-15 1.85934916,0 Z" id="Shape" fill="#001287"></path>
            <path d="M29.4073569,5.09999999 C29.6683806,5.09999999 29.8800001,4.9432923 29.8800001,4.74999999 C29.8800001,4.55670768 29.6683806,4.4 29.4073569,4.4 L17.4726432,4.4 C17.2116195,4.4 17,4.55670768 17,4.74999999 C17,4.9432923 17.2116195,5.09999999 17.4726432,5.09999999 L29.4073569,5.09999999 Z" id="Shape" fill="#001287"></path>
            <path d="M29.4073569,10.6 C29.6683806,10.6 29.8800001,10.4432923 29.8800001,10.25 C29.8800001,10.0567077 29.6683806,9.9 29.4073569,9.9 L17.4726432,9.9 C17.2116195,9.9 17,10.0567077 17,10.25 C17,10.4432923 17.2116195,10.6 17.4726432,10.6 L29.4073569,10.6 Z" id="Shape" fill="#001287"></path>
            <path d="M29.2296059,16.1 C29.5887951,16.1 29.8800001,15.9432923 29.8800001,15.75 C29.8800001,15.5567077 29.5887951,15.4 29.2296059,15.4 L17.6503942,15.4 C17.2912051,15.4 17,15.5567077 17,15.75 C17,15.9432923 17.2912051,16.1 17.6503942,16.1 L29.2296059,16.1 Z" id="Shape" fill="#001287"></path>
            <g id="Group-2" transform="translate(3.187500, 4.400000)">
                <path d="M6.6597913,3.96090962 C6.67149269,3.86445366 6.67669637,3.77574338 6.67588067,3.69474906 C6.67261779,3.38398465 6.58494237,3.14015535 6.43088388,2.9696326 C6.27004663,2.79156835 6.02549924,2.67614282 5.71749515,2.6312175 C5.60844178,2.61531687 5.49604117,2.60786341 5.38119355,2.60903258 L5.38122168,2.61134168 C5.36181315,2.61154629 5.3426016,2.61078633 5.32369941,2.60903258 C5.22449126,2.60993868 5.12719572,2.61739208 5.03245936,2.6312175 C4.72448314,2.67611342 4.47993646,2.79156835 4.31909849,2.9696326 C4.16501214,3.1401843 4.07736463,3.38398465 4.07410171,3.69474906 C4.07317348,3.7854765 4.079868,3.88590738 4.09469159,3.99601347 L4.09598548,3.99583809 C4.11975384,4.17188519 4.06664771,4.34071299 3.96327642,4.46572539 C3.7120067,4.83462649 4.24008657,5.38471519 4.24160551,5.38632625 L3.83748688,5.80395237 L4.24382747,5.38623864 C4.32430254,5.4707691 4.37527052,5.57406497 4.39698574,5.68241747 C4.51281789,6.06984937 4.70108031,6.33867001 4.91868051,6.49203395 C5.06002522,6.59167637 5.21759955,6.64154101 5.37500527,6.64154101 C5.53238312,6.64154101 5.68995745,6.59167607 5.83130145,6.49203395 C6.05688999,6.33299792 6.25097525,6.04997255 6.36545707,5.63927544 L6.36351622,5.63869085 C6.39434477,5.52808809 6.45344213,5.43399897 6.53026061,5.3623584 C6.62935659,5.25064497 7.02166095,4.77187165 6.77365415,4.44760039 L6.77278218,4.44830189 C6.66347589,4.30560505 6.6276687,4.12672265 6.65979071,3.9609061 L6.6597913,3.96090962 Z M7.81456906,3.68545396 C7.8154129,3.76472364 7.81333142,3.84469415 7.80818394,3.92527865 C8.31738999,4.84380073 7.6808476,5.77901984 7.41928254,6.10270013 C7.21822204,6.72770645 6.87578825,7.18494068 6.46986847,7.47109164 C6.13106341,7.70992297 5.75304605,7.82941176 5.37500512,7.82941176 C4.99693347,7.82941176 4.6189447,7.70992297 4.2801132,7.47109164 C3.87422272,7.18496741 3.53179035,6.72773614 3.33069913,6.10270013 C3.06910621,5.77901687 2.43261883,4.84374134 2.94182631,3.92524896 C2.93667884,3.84466446 2.9345692,3.76472289 2.93541306,3.68545322 C2.9420232,3.05860496 3.13993368,2.54347013 3.48852682,2.15758989 C3.83028473,1.77918953 4.30573766,1.5404458 4.87617487,1.45725986 C5.01743528,1.43668258 5.1679772,1.42601393 5.3269583,1.42557545 C5.34074111,1.42437706 5.3546646,1.42367556 5.36872877,1.42352941 L5.3687569,1.42569237 L5.37497324,1.42575083 C5.55173147,1.42396786 5.71839085,1.43460723 5.87377179,1.4572598 C6.44426901,1.54044574 6.91969479,1.77924812 7.26144842,2.15758983 C7.61004156,2.54347304 7.80795202,3.05860565 7.81456218,3.68545316 L7.81456906,3.68545396 Z" id="Shape" fill="#010C93"></path>
                <path d="M8.98461722,11.0451958 C8.97333053,10.9973869 8.96008869,10.9480205 8.94459537,10.8977722 C8.8632778,10.6340188 8.7197796,10.3561204 8.46794726,10.241997 L8.45384627,10.2358197 C7.5880294,9.81729731 6.48537268,9.59598066 5.36303949,9.59598066 C4.28123304,9.59598066 3.19356503,9.80206197 2.296168,10.2358197 L2.28206702,10.241997 C2.03020533,10.3561467 1.88670714,10.6340194 1.80538956,10.8977722 C1.78989625,10.9480209 1.77665441,10.9973867 1.76536772,11.0451958 L8.98461165,11.0451958 L8.98461722,11.0451958 Z M10.1062055,10.625817 C10.240964,11.0627155 10.2495554,11.4767484 10.2496149,11.5725972 L10.25,12.1 L9.64999817,12.1 L1.10003117,12.1 L0.5,12.1 L0.500414734,11.5725972 C0.500473982,11.4767457 0.509064927,11.0627141 0.643794044,10.625817 C0.795408874,10.1340502 1.10204561,9.59815954 1.71792555,9.31315109 L1.71774781,9.31286559 C2.8000584,8.78971963 4.09156399,8.54117647 5.36305452,8.54117647 C6.67951121,8.54117647 7.98802207,8.80809632 9.03229653,9.31286559 L9.03211879,9.31315109 C9.64802807,9.59816152 9.95460235,10.1340799 10.1062202,10.625817 L10.1062055,10.625817 Z" id="Shape" fill="#010C93"></path>
                <path d="M10.210517,1.1180282 L1.03948303,1.1180282 L1.03948303,10.9819718 L10.210517,10.9819718 L10.210517,1.1180282 Z M0.519741515,5.32907052e-15 L10.7302585,5.32907052e-15 C11.0172929,5.32907052e-15 11.25,0.250290878 11.25,0.559014102 L11.25,11.5409859 C11.25,11.8497091 11.0172929,12.1 10.7302585,12.1 L0.519741515,12.1 C0.232707117,12.1 0,11.8497091 0,11.5409859 L0,0.559014102 C0,0.250290878 0.232707117,5.32907052e-15 0.519741515,5.32907052e-15 Z" id="Shape" fill="#001287"></path>
            </g>
        </g>
    </g>
</svg>