<?xml version="1.0" encoding="UTF-8"?>
<svg width="34px" height="22px" viewBox="0 0 34 22" version="1.1" xmlns="http://www.w3.org/2000/svg" xmlns:xlink="http://www.w3.org/1999/xlink">
    <!-- Generator: Sketch 49 (51002) - http://www.bohemiancoding.com/sketch -->
    <title>Slice 1</title>
    <desc>Created with Sketch.</desc>
    <defs></defs>
    <g id="Page-1" stroke="none" stroke-width="1" fill="none" fill-rule="evenodd">
        <g id="Group-3" fill="#010C93" fill-rule="nonzero">
            <g id="Group">
                <path d="M32.1406774,1.14270503 L1.85934916,1.14270503 C1.64078353,1.14270503 1.44164306,1.23931788 1.29698762,1.39489289 C1.1523315,1.55049646 1.06250042,1.76464152 1.06250042,1.9997338 L1.06250042,20.0002662 C1.06250042,20.2353585 1.15233217,20.4495035 1.29698762,20.6051071 C1.44164373,20.7606828 1.6407842,20.857295 1.85934916,20.857295 L32.1406774,20.857295 C32.359243,20.857295 32.5583569,20.7606821 32.703013,20.6051071 C32.8476692,20.4495035 32.9375002,20.2353585 32.9375002,20.0002662 L32.9375002,1.9997338 C32.9375002,1.76464152 32.8476685,1.55049646 32.703013,1.39489289 C32.5583569,1.23931717 32.359243,1.14270503 32.1406774,1.14270503 Z M1.85934916,0 L32.1406774,0 C32.6525549,0 33.117527,0.224829357 33.45424,0.58695758 C33.7909511,0.949142225 34,1.4492428 34,1.9997338 L34,20.0002662 C34,20.5507551 33.7909511,21.0508549 33.45424,21.4130424 C33.117529,21.7751706 32.6525569,22 32.1406774,22 L1.85934916,22 C1.34747166,22 0.882473001,21.7751706 0.545759979,21.4130424 C0.209048949,21.0508578 0,20.5507572 0,20.0002662 L0,1.9997338 C0,1.44924494 0.209048949,0.949145081 0.545759979,0.58695758 C0.882471009,0.224829357 1.34746967,3.17164359e-15 1.85934916,0 Z" id="Shape"></path>
            </g>
            <g id="noun_155913_cc" transform="translate(7.234043, 3.034483)">
                <path d="M19.5319149,8.50363989 C19.5319149,8.72250268 19.456963,8.92878085 19.3214638,9.08335269 L16.4334982,12.2642497 C16.2977548,12.4188215 16.1173332,12.5044516 15.9256811,12.5044516 C15.7332966,12.5044516 15.5531192,12.4190951 15.4173757,12.2642497 L12.578727,9.08335269 C12.2989393,8.76353945 12.2989393,8.24346676 12.578727,7.92392709 L14.8155637,7.92392709 C14.626353,4.93371431 12.4410305,2.57464708 9.77157273,2.57464708 C8.25373674,2.57464708 6.89288459,3.33820461 5.96587426,4.5460536 L4.13822101,3.02085358 C5.48027416,1.17556673 7.50543896,0 9.77157273,0 C13.6886003,0 16.8863832,3.51083263 17.0785236,7.92420067 L19.3217079,7.92420067 C19.456963,8.07877251 19.5319149,8.28477711 19.5319149,8.50363989 Z M0.210451122,8.7654545 L2.45363547,8.7654545 C2.64577588,13.1788225 5.8435587,16.6896552 9.7605863,16.6896552 C12.0267201,16.6896552 14.052129,15.5140884 15.393938,13.6688016 L13.5662848,12.1436016 C12.6395186,13.351177 11.2786664,14.1147345 9.7605863,14.1147345 C7.09088443,14.1147345 4.90580608,11.7556673 4.71659538,8.7654545 L6.95318787,8.7654545 C7.23346384,8.44591483 7.23346384,7.92584214 6.95318787,7.6060289 L4.1147833,4.42513191 C3.97879574,4.27028649 3.79861833,4.18520359 3.60647792,4.18520359 C3.41458166,4.18520359 3.2341601,4.27056007 3.09841669,4.42513191 L0.210451122,7.6060289 C0.0747077068,7.76087432 0,7.96660534 0,8.1857417 C0,8.40487806 0.0749518496,8.61060908 0.210451122,8.7654545 Z" id="Shape"></path>
            </g>
        </g>
    </g>
</svg>