<?xml version="1.0" encoding="UTF-8"?>
<svg width="36px" height="36px" viewBox="0 0 36 36" version="1.1" xmlns="http://www.w3.org/2000/svg" xmlns:xlink="http://www.w3.org/1999/xlink">
    <!-- Generator: Sketch 49.1 (51147) - http://www.bohemiancoding.com/sketch -->
    <title>Slice 1</title>
    <desc>Created with Sketch.</desc>
    <defs></defs>
    <g id="Page-1" stroke="none" stroke-width="1" fill="none" fill-rule="evenodd">
        <g id="Group" fill="#002364" fill-rule="nonzero">
            <path d="M32.7838319,3.21428571 L26.3556296,3.21428571 L26.3556296,0.642857143 C26.3556296,0.287322003 26.0683241,0 25.7128093,0 C25.3572946,0 25.0699891,0.287322003 25.0699891,0.642857143 L25.0699891,6.42857143 C25.0699891,6.78410657 25.3572946,7.07142857 25.7128093,7.07142857 C26.0683241,7.07142857 26.3556296,6.78410657 26.3556296,6.42857143 L26.3556296,4.5 L32.7838319,4.5 C33.8483091,4.5 34.7122926,5.36610014 34.7122926,6.42857143 L34.7122926,12.2142857 L1.28564047,12.2142857 L1.28564047,6.42857143 C1.28564047,5.36403307 2.15169088,4.5 3.21410117,4.5 L8.35666303,4.5 L8.35666303,3.21428571 L3.21410117,3.21428571 C1.44272837,3.21428571 0,4.65709692 0,6.42857143 L0,32.7857143 C0,34.5571888 1.44272837,36 3.21410117,36 L32.7858988,36 C34.5572716,36 36,34.5571888 36,32.7857143 L36,6.42857143 C35.9979331,4.65502986 34.5572716,3.21428571 32.7838319,3.21428571 Z M34.7122926,32.7857143 C34.7122926,33.8502526 33.8462422,34.7142857 32.7838319,34.7142857 L3.21410117,34.7142857 C2.14962393,34.7142857 1.28564047,33.8481856 1.28564047,32.7857143 L1.28564047,13.5 L34.7143595,13.5 L34.7143595,32.7857143 L34.7122926,32.7857143 Z" id="Shape"></path>
            <path d="M9.63636364,7 C9.98830751,7 10.2727273,6.71558024 10.2727273,6.36363636 L10.2727273,4.45454545 L23,4.45454545 L23,3.18181818 L10.2727273,3.18181818 L10.2727273,0.636363636 C10.2727273,0.28441976 9.98830751,0 9.63636364,0 C9.28441976,0 9,0.28441976 9,0.636363636 L9,6.36363636 C9,6.71558024 9.28441976,7 9.63636364,7 Z" id="Shape"></path>
        </g>
    </g>
</svg>