<?xml version="1.0" encoding="UTF-8"?>
<svg width="35px" height="35px" viewBox="0 0 35 35" version="1.1" xmlns="http://www.w3.org/2000/svg" xmlns:xlink="http://www.w3.org/1999/xlink">
    <!-- Generator: Sketch 47.1 (45422) - http://www.bohemiancoding.com/sketch -->
    <title>icons/colours/eyeLight</title>
    <desc>Created with Sketch.</desc>
    <defs>
        <path d="M3.8458278,-1.55376046e-16 L48,0 L48,48 L3.8458278,48 C2.50854969,48 2.02362033,47.8607616 1.53473144,47.5993009 C1.04584256,47.3378403 0.662159695,46.9541574 0.400699056,46.4652686 C0.139238417,45.9763797 6.01853049e-17,45.4914503 -1.03584031e-16,44.1541722 L1.03584031e-16,3.8458278 C-6.01853049e-17,2.50854969 0.139238417,2.02362033 0.400699056,1.53473144 C0.662159695,1.04584256 1.04584256,0.662159695 1.53473144,0.400699056 C2.02362033,0.139238417 2.50854969,9.02779573e-17 3.8458278,-1.55376046e-16 Z" id="path-1"></path>
    </defs>
    <g id="Symbols" stroke="none" stroke-width="1" fill="none" fill-rule="evenodd">
        <g id="icons/colours/eyeLight">
            <mask id="mask-2" fill="white">
                <use xlink:href="#path-1"></use>
            </mask>
            <g id="Mask"></g>
            <g id="eye-light" mask="url(#mask-2)">
                <g transform="translate(4.000000, 9.000000)">
                    <path d="M13.3525618,-3.55271368e-15 C7.4935618,-3.55271368e-15 2.42089888,3.35042697 0.0609775281,8.21952809 C-0.0203258427,8.38698876 -0.0203258427,8.58296629 0.0609775281,8.75042697 C2.41907865,13.6228652 7.49052809,16.988764 13.3525618,16.988764 C13.6874831,16.993618 13.9632472,16.7257416 13.9677978,16.3905169 C13.9726517,16.0555955 13.7047753,15.7801348 13.3698539,15.7752809 L13.3525618,15.7752809 C8.06602247,15.7752809 3.5245618,12.7928427 1.31238202,8.48497753 C3.52547191,4.18044944 8.06844944,1.21348315 13.3525618,1.21348315 C18.6366742,1.21348315 23.1796517,4.18044944 25.3927416,8.48497753 C23.5136629,12.1439326 19.9557303,14.8487865 15.684573,15.5762697 C15.3526854,15.6202584 15.1187865,15.9254494 15.1630787,16.2576404 C15.2070674,16.5898315 15.5122584,16.823427 15.8444494,16.7794382 C15.8611348,16.7770112 15.8772135,16.7742809 15.8932921,16.7706404 C20.657427,15.9591236 24.6340112,12.9041798 26.6441461,8.75042697 C26.7254494,8.58296629 26.7254494,8.38698876 26.6441461,8.21952809 C24.2842247,3.35042697 19.2115618,-3.55271368e-15 13.3525618,-3.55271368e-15" id="Oval-2" stroke="none" fill="#FFFFFF" fill-rule="evenodd"></path>
                    <path d="M13.5,4.25 C15.8420573,4.25 17.75,6.15794269 17.75,8.5 C17.75,10.8420573 15.8420573,12.75 13.5,12.75 C11.1579427,12.75 9.25,10.8420573 9.25,8.5 C9.25,6.15794269 11.1579427,4.25 13.5,4.25 Z" id="Path" stroke="#FFFFFF" stroke-width="1.5" fill="none"></path>
                </g>
            </g>
        </g>
    </g>
</svg>