<?xml version="1.0" encoding="UTF-8"?>
<svg width="35px" height="35px" viewBox="0 0 35 35" version="1.1" xmlns="http://www.w3.org/2000/svg" xmlns:xlink="http://www.w3.org/1999/xlink">
    <!-- Generator: Sketch 47.1 (45422) - http://www.bohemiancoding.com/sketch -->
    <title>icons/colours/hairDark</title>
    <desc>Created with Sketch.</desc>
    <defs>
        <path d="M3.8458278,-1.55376046e-16 L48,0 L48,48 L3.8458278,48 C2.50854969,48 2.02362033,47.8607616 1.53473144,47.5993009 C1.04584256,47.3378403 0.662159695,46.9541574 0.400699056,46.4652686 C0.139238417,45.9763797 6.01853049e-17,45.4914503 -1.03584031e-16,44.1541722 L1.03584031e-16,3.8458278 C-6.01853049e-17,2.50854969 0.139238417,2.02362033 0.400699056,1.53473144 C0.662159695,1.04584256 1.04584256,0.662159695 1.53473144,0.400699056 C2.02362033,0.139238417 2.50854969,9.02779573e-17 3.8458278,-1.55376046e-16 Z" id="path-1"></path>
    </defs>
    <g id="Symbols" stroke="none" stroke-width="1" fill="none" fill-rule="evenodd">
        <g id="icons/colours/hairDark">
            <mask id="mask-2" fill="white">
                <use xlink:href="#path-1"></use>
            </mask>
            <g id="Mask"></g>
            <path d="M12.9845,21.9972814 C12.84675,22.0057814 12.74175,22.1245314 12.75025,22.2622814 C12.75125,22.2782814 12.754,22.2940314 12.758,22.3097814 C13.27925,24.3955314 14.875,26.0050314 17,26.0050314 C17.13825,26.0070314 17.2515,25.8967814 17.2535,25.7585314 C17.2555,25.6205314 17.14525,25.5070314 17.00725,25.5050314 L17,25.5050314 C15.12525,25.5050314 13.721,24.1067814 13.24225,22.1925314 C13.21575,22.0732814 13.10675,21.9905314 12.9845,21.9972814 M16.9455,7.00503137 C16.87375,7.02303137 16.81375,7.07153137 16.7815,7.13778137 C15.29375,9.94353137 13.60975,12.2920314 12.28925,14.4660314 C10.9685,16.6400314 10,18.6482814 10,20.7550314 C10,24.9385314 13.1185,28.5050314 17,28.5050314 C20.882,28.5050314 24.00025,24.9385314 24.00025,20.7550314 C24.002,20.6170314 23.89175,20.5035314 23.7535,20.5015314 C23.6155,20.4995314 23.502,20.6100314 23.50025,20.7480314 L23.50025,20.7550314 C23.50025,24.6902814 20.57425,28.0050314 17,28.0050314 C13.426,28.0050314 10.5,24.6902814 10.5,20.7550314 C10.5,18.8025314 11.413,16.8732814 12.719,14.7237814 C13.96275,12.6762814 15.5495,10.4112814 17,7.74728137 C19.596,12.5180314 22.633,15.9820314 23.344,19.3097814 C23.35825,19.4470314 23.481,19.5467814 23.6185,19.5325314 C23.75575,19.5180314 23.8555,19.3952814 23.84125,19.2577814 C23.83925,19.2382814 23.83475,19.2190314 23.82825,19.2002814 C23.0515,15.5637814 19.826,12.0550314 17.21875,7.13778137 C17.16825,7.03703137 17.05625,6.98253137 16.9455,7.00503137" id="Fill-1" stroke="#000000" stroke-width="0.75" fill="#000000" mask="url(#mask-2)"></path>
        </g>
    </g>
</svg>