<?xml version="1.0" encoding="UTF-8"?>
<svg width="35px" height="35px" viewBox="0 0 35 35" version="1.1" xmlns="http://www.w3.org/2000/svg" xmlns:xlink="http://www.w3.org/1999/xlink">
    <!-- Generator: Sketch 47.1 (45422) - http://www.bohemiancoding.com/sketch -->
    <title>icons/license/5thwheel</title>
    <desc>Created with Sketch.</desc>
    <defs></defs>
    <g id="Symbols" stroke="none" stroke-width="1" fill="none" fill-rule="evenodd">
        <g id="icons/license/5thwheel" stroke="#FFFFFF" stroke-width="0.33" fill="#FFFFFF" fill-rule="nonzero">
            <path d="M7.76677218,8 C4.57821463,8 2,10.7182529 2,14.08 L2,22.44 C2,23.4860271 2.80997819,24.34 3.80211631,24.34 L17.4193576,24.34 C17.9976377,25.8949855 19.4255326,27 21.1024328,27 C22.7793331,27 24.207228,25.8949855 24.785508,24.34 L31.1942842,24.34 C32.1864223,24.34 32.9964005,23.4860271 32.9964005,22.44 L32.9964005,16.36 C32.9990817,16.2430145 32.9504959,16.1312496 32.8646917,16.0570221 C32.7788874,15.9827946 32.6654334,15.9543821 32.5571346,15.98 C32.3893113,16.0196257 32.2714141,16.1787309 32.2755539,16.36 L32.2755539,22.44 C32.2755539,23.0781329 31.7995419,23.58 31.1942842,23.58 L24.9995093,23.58 C25.0425929,23.3336924 25.0670887,23.0792056 25.0670887,22.82 C25.0670887,20.5159506 23.2877825,18.64 21.1024328,18.64 C18.9170832,18.64 17.137777,20.5159506 17.137777,22.82 C17.137777,23.0792056 17.1622728,23.3336924 17.2053563,23.58 L14.9752374,23.58 L14.9752374,12.56 C14.9752175,12.3501405 14.8138622,12.180021 14.6148141,12.18 L9.56888848,12.18 C9.55763145,12.1794431 9.54635584,12.1794431 9.5350988,12.18 C9.34935266,12.1984569 9.20766075,12.3632989 9.20846522,12.56 L9.20846522,23.58 L3.80211631,23.58 C3.1968586,23.58 2.72084652,23.0781329 2.72084652,22.44 L2.72084652,14.08 C2.72084652,11.1261471 4.96509512,8.76 7.76677218,8.76 L19.3003165,8.76 C22.3302918,8.76 25.183141,9.04414652 27.466156,9.87625 C29.749171,10.7083535 31.4423613,12.0572239 32.2980804,14.2225 C32.3727265,14.4192514 32.5845207,14.5149506 32.7711359,14.43625 C32.9577512,14.3575494 33.0485201,14.1342514 32.973874,13.9375 C32.0274768,11.5427761 30.1113388,10.0416465 27.7026838,9.16375 C25.2940289,8.28585348 22.3728661,8 19.3003165,8 L7.76677218,8 Z M17.4306209,12.18 C17.258309,12.2146642 17.1346858,12.37508 17.137777,12.56 L17.137777,16.36 C17.1377969,16.5698595 17.2991522,16.739979 17.4982002,16.74 L28.3108981,16.74 C28.5099461,16.739979 28.6713014,16.5698595 28.6713213,16.36 L28.6713213,12.56 C28.6713014,12.3501405 28.5099461,12.180021 28.3108981,12.18 L17.4982002,12.18 C17.4869432,12.1794431 17.4756676,12.1794431 17.4644105,12.18 C17.4531535,12.1794431 17.4418779,12.1794431 17.4306209,12.18 L17.4306209,12.18 Z M9.92931174,12.94 L14.2543909,12.94 L14.2543909,23.58 L9.92931174,23.58 L9.92931174,12.94 Z M17.8586235,12.94 L22.5441259,12.94 L22.5441259,15.98 L17.8586235,15.98 L17.8586235,12.94 Z M23.2649724,12.94 L27.9504748,12.94 L27.9504748,15.98 L23.2649724,15.98 L23.2649724,12.94 Z M21.1024328,19.4 C22.8982082,19.4 24.3462422,20.926685 24.3462422,22.82 C24.3462422,24.713315 22.8982082,26.24 21.1024328,26.24 C19.3066575,26.24 17.8586235,24.713315 17.8586235,22.82 C17.8586235,20.926685 19.3066575,19.4 21.1024328,19.4 Z M21.1024328,21.3 C20.310477,21.3 19.6607398,21.9850283 19.6607398,22.82 C19.6607398,23.6549717 20.310477,24.34 21.1024328,24.34 C21.8943887,24.34 22.5441259,23.6549717 22.5441259,22.82 C22.5441259,21.9850283 21.8943887,21.3 21.1024328,21.3 Z M21.1024328,22.06 C21.5048144,22.06 21.8232794,22.3957627 21.8232794,22.82 C21.8232794,23.2442373 21.5048144,23.58 21.1024328,23.58 C20.7000513,23.58 20.3815863,23.2442373 20.3815863,22.82 C20.3815863,22.3957627 20.7000513,22.06 21.1024328,22.06 Z" id="5th-wheel"></path>
        </g>
    </g>
</svg>