<?xml version="1.0" encoding="UTF-8"?>
<svg width="35px" height="35px" viewBox="0 0 35 35" version="1.1" xmlns="http://www.w3.org/2000/svg" xmlns:xlink="http://www.w3.org/1999/xlink">
    <!-- Generator: Sketch 47.1 (45422) - http://www.bohemiancoding.com/sketch -->
    <title>icons/license/?</title>
    <desc>Created with Sketch.</desc>
    <defs></defs>
    <g id="Symbols" stroke="none" stroke-width="1" fill="none" fill-rule="evenodd">
        <g id="icons/license/?" stroke="#FFFFFF" stroke-width="0.33" fill="#FFFFFF">
            <g id="Group-5" transform="translate(8.000000, 8.000000)">
                <path d="M9.98314203,3.33333333 C7.60978501,3.33333333 5.66041288,5.19951802 5.66041288,7.50783068 C5.65836608,7.67180854 5.74489629,7.82421157 5.88693403,7.90679553 C6.02897178,7.98937949 6.20456249,7.98937949 6.34660024,7.90679553 C6.48863799,7.82421157 6.57516819,7.67180854 6.57312139,7.50783068 C6.57312139,5.70993112 8.08575256,4.24373111 9.98314203,4.24373111 C10.9298743,4.24373111 11.8818779,4.62847 12.5348557,5.22433283 C13.1878107,5.82019566 13.5382258,6.58861729 13.3971333,7.43300156 C13.3971332,7.4331533 13.3971332,7.43330505 13.3971333,7.43345679 C13.092357,9.26992379 12.2642401,9.57658774 11.3147923,10.1579696 C10.840057,10.4486594 10.3263234,10.7995994 9.97693515,11.4081564 C9.62752413,12.0167135 9.46651027,12.8400272 9.55776515,14.0185602 C9.56836686,14.1822268 9.66640922,14.3275535 9.8144162,14.3989902 C9.96242318,14.4704268 10.1375125,14.4569291 10.2727576,14.3636565 C10.4080026,14.2703839 10.4824941,14.1117565 10.4677581,13.9484086 C10.3852431,12.8826371 10.5345506,12.2688677 10.7689745,11.8605226 C11.0033985,11.4522003 11.3469906,11.2065332 11.7922888,10.9338479 C12.6828168,10.3885684 13.9456438,9.70173389 14.2974965,7.58261655 C14.2974965,7.58245039 14.2974965,7.58238893 14.2974965,7.58216131 C14.4946791,6.40094472 13.98074,5.3098645 13.1509801,4.55264847 C12.3210833,3.79533001 11.1717602,3.33333333 9.98314203,3.33333333 L9.98314203,3.33333333 Z" id="Shape"></path>
                <path d="M9.99995272,14.8148148 C9.48490018,14.8148148 9.05660377,15.2374696 9.05660377,15.7407755 C9.05660377,16.2439888 9.48206346,16.6666667 9.99995272,16.6666667 C10.517842,16.6666667 10.9433962,16.2467898 10.9433962,15.7407755 C10.9433962,15.2346917 10.5149816,14.8148148 9.99995272,14.8148148 Z" id="Shape"></path>
                <path d="M9.99999999,0 C4.48161362,0 0,4.48434401 0,10.0011622 C0,15.5179871 4.48174998,20 9.99999999,20 C15.51825,20 20,15.5179871 20,10.0011622 C20,4.48434174 15.5183864,0 9.99999999,0 Z M9.99999999,0.90521782 C15.0248636,0.90521782 19.091,4.9713912 19.091,10.0011622 C19.091,15.0309422 15.025,19.0947799 9.99999999,19.0947799 C4.97499998,19.0947799 0.90902266,15.0309422 0.90902266,10.0011622 C0.90902266,4.97138894 4.97513635,0.90521782 9.99999999,0.90521782 Z" id="Shape"></path>
            </g>
        </g>
    </g>
</svg>