<?xml version="1.0" encoding="UTF-8"?>
<svg width="35px" height="35px" viewBox="0 0 35 35" version="1.1" xmlns="http://www.w3.org/2000/svg" xmlns:xlink="http://www.w3.org/1999/xlink">
    <!-- Generator: Sketch 47.1 (45422) - http://www.bohemiancoding.com/sketch -->
    <title>icons/license/car</title>
    <desc>Created with Sketch.</desc>
    <defs></defs>
    <g id="Symbols" stroke="none" stroke-width="1" fill="none" fill-rule="evenodd">
        <g id="icons/license/car" stroke="#FFFFFF" stroke-width="0.33" fill="#FFFFFF" fill-rule="nonzero">
            <path d="M9.2827264,8 C9.02665859,8 8.68975554,8.07650148 8.3473973,8.28935185 C8.00732126,8.50078296 7.66947789,8.87026407 7.5234169,9.41203704 C7.52241922,9.41566667 7.52437895,9.41995926 7.5234169,9.42361111 L5.97566994,15.1412037 L2.92471549,16.5532407 C2.9210041,16.5531805 2.91729202,16.5531805 2.91358062,16.5532407 C2.51522008,16.7602774 2.23786617,17.0271741 2.11186997,17.3518519 C1.98587376,17.6765296 2.00052126,17.9922585 2.00052126,18.3587963 L2.00052126,23.1851852 C2.00052126,23.9823204 2.63745205,24.6666667 3.42578465,24.6666667 L4.87331778,24.6666667 C5.0512498,26.5365711 6.5695747,28 8.41420652,28 C10.2588387,28 11.7771632,26.5365711 11.9550953,24.6666667 L23.4017419,24.6666667 C23.5796739,26.5365711 25.0979984,28 26.9426306,28 C28.7872624,28 30.3055873,26.5365711 30.4835193,24.6666667 L31.5747366,24.6666667 C32.0719483,24.6666667 32.4667623,24.4816926 32.6993585,24.1805556 C32.9319547,23.8794185 33,23.5100689 33,23.1851852 L33,19.3078704 C33,18.4886452 32.5434831,17.7164419 31.7306248,17.2939815 C31.7196802,17.2895536 31.7085317,17.2856909 31.6972202,17.2824074 L25.7623343,15.1064815 L23.2235839,10.0833333 C23.2199548,10.0793905 23.2162423,10.0755316 23.2124491,10.0717593 C22.7783331,9.29367926 22.3538558,8.75772593 21.8205903,8.42824074 C21.2873248,8.09875556 20.6745225,8 19.9276623,8 L9.2827264,8 Z M9.2827264,8.74074074 L19.9276623,8.74074074 C20.6131951,8.74074074 21.0786619,8.82655889 21.4642744,9.06481481 C21.846947,9.30125407 22.1888196,9.71669222 22.5888963,10.4305556 C22.5919606,10.4360407 22.5969526,10.4366111 22.6000312,10.4421296 L25.2055908,15.5810185 C25.2461935,15.6609596 25.313519,15.7227076 25.3948836,15.7546296 L29.7931574,17.3634259 L29.7931574,20.2222222 C29.793177,20.4267637 29.9526936,20.5925721 30.1494732,20.5925926 L32.2873683,20.5925926 L32.2873683,23.1851852 C32.2873683,23.4009222 32.234733,23.5867552 32.142615,23.7060185 C32.050497,23.8252819 31.9165632,23.9259259 31.5747366,23.9259259 L30.4835193,23.9259259 C30.3055873,22.0560215 28.7872624,20.5925926 26.9426306,20.5925926 C25.0979984,20.5925926 23.5796739,22.0560215 23.4017419,23.9259259 L11.9550953,23.9259259 C11.7771632,22.0560215 10.2588387,20.5925926 8.41420652,20.5925926 C6.5695747,20.5925926 5.0512498,22.0560215 4.87331778,23.9259259 L3.42578465,23.9259259 C3.05660149,23.9259259 2.71315296,23.5487648 2.71315296,23.1851852 L2.71315296,18.3587963 C2.71315296,17.9922585 2.72780046,17.7640444 2.77996218,17.6296296 C2.83138533,17.4971181 2.91073455,17.3840422 3.21422212,17.224537 L3.22535699,17.224537 L6.42106475,15.7430556 C6.51735059,15.7002547 6.59065062,15.6155978 6.62149241,15.5115741 L8.21377885,9.62037037 C8.21383685,9.61651258 8.21383685,9.61265409 8.21377885,9.6087963 C8.30744966,9.25367926 8.49876063,9.06027111 8.71484802,8.92592593 C8.9309354,8.79158074 9.18247836,8.74074074 9.2827264,8.74074074 Z M9.41634484,9.85185185 C9.27606878,9.88143784 9.16643637,9.99539459 9.13797308,10.1412037 L8.06902554,15.3263889 C8.04546511,15.4356812 8.07074578,15.5501856 8.13779399,15.6378637 C8.2048422,15.7255418 8.30645701,15.776977 8.41420652,15.7777778 L13.4026284,15.7777778 C13.599408,15.7777573 13.7589246,15.6119488 13.7589442,15.4074074 L13.7589442,10.2222222 C13.7589246,10.0176808 13.599408,9.8518723 13.4026284,9.85185185 L9.48315406,9.85185185 C9.47202531,9.85130907 9.4608782,9.85130907 9.44974945,9.85185185 C9.4386207,9.85130907 9.42747359,9.85130907 9.41634484,9.85185185 Z M15.1173984,9.85185185 C14.9470502,9.88563761 14.8248359,10.0419883 14.8278918,10.2222222 L14.8278918,15.4074074 C14.8279114,15.6119488 14.987428,15.7777573 15.1842076,15.7777778 L23.3794721,15.7777778 C23.5027139,15.7786595 23.6176451,15.7132858 23.6833716,15.6049178 C23.7490981,15.4965497 23.7562881,15.3605731 23.7023834,15.2453704 L21.2081724,10.0601852 C21.1481178,9.9318944 21.0225156,9.85085935 20.8852612,9.85185185 L15.1842076,9.85185185 C15.1730789,9.85130907 15.1619318,9.85130907 15.150803,9.85185185 C15.1396743,9.85130907 15.1285271,9.85130907 15.1173984,9.85185185 Z M9.77266069,10.5925926 L13.0463125,10.5925926 L13.0463125,15.037037 L8.84846646,15.037037 L9.77266069,10.5925926 Z M15.5405235,10.5925926 L20.6625638,10.5925926 L22.8004589,15.037037 L15.5405235,15.037037 L15.5405235,10.5925926 Z M30.5057891,17.6296296 L31.4188484,17.9652778 C32.0312535,18.2835581 32.2873683,18.7553022 32.2873683,19.3078704 L32.2873683,19.8518519 L30.5057891,19.8518519 L30.5057891,17.6296296 Z M8.41420652,21.3333333 C9.9927267,21.3333333 11.2647333,22.6555126 11.2647333,24.2962963 C11.2647333,25.9370796 9.9927267,27.2592593 8.41420652,27.2592593 C6.83568669,27.2592593 5.56367974,25.9370796 5.56367974,24.2962963 C5.56367974,22.6555126 6.83568669,21.3333333 8.41420652,21.3333333 Z M26.9426306,21.3333333 C28.5211504,21.3333333 29.7931574,22.6555126 29.7931574,24.2962963 C29.7931574,25.9370796 28.5211504,27.2592593 26.9426306,27.2592593 C25.3641104,27.2592593 24.0921038,25.9370796 24.0921038,24.2962963 C24.0921038,22.6555126 25.3641104,21.3333333 26.9426306,21.3333333 Z M8.41420652,22.8148148 C7.63127549,22.8148148 6.98894313,23.4824837 6.98894313,24.2962963 C6.98894313,25.1101093 7.63127549,25.7777778 8.41420652,25.7777778 C9.19713755,25.7777778 9.83946991,25.1101093 9.83946991,24.2962963 C9.83946991,23.4824837 9.19713755,22.8148148 8.41420652,22.8148148 Z M26.9426306,22.8148148 C26.1596996,22.8148148 25.5173672,23.4824837 25.5173672,24.2962963 C25.5173672,25.1101093 26.1596996,25.7777778 26.9426306,25.7777778 C27.7255616,25.7777778 28.367894,25.1101093 28.367894,24.2962963 C28.367894,23.4824837 27.7255616,22.8148148 26.9426306,22.8148148 Z M8.41420652,23.5555556 C8.81200252,23.5555556 9.12683821,23.8828096 9.12683821,24.2962963 C9.12683821,24.709783 8.81200252,25.037037 8.41420652,25.037037 C8.01641052,25.037037 7.70157482,24.709783 7.70157482,24.2962963 C7.70157482,23.8828096 8.01641052,23.5555556 8.41420652,23.5555556 Z M26.9426306,23.5555556 C27.3404266,23.5555556 27.6552623,23.8828096 27.6552623,24.2962963 C27.6552623,24.709783 27.3404266,25.037037 26.9426306,25.037037 C26.5448346,25.037037 26.2299989,24.709783 26.2299989,24.2962963 C26.2299989,23.8828096 26.5448346,23.5555556 26.9426306,23.5555556 Z" id="Shape"></path>
        </g>
    </g>
</svg>