<?xml version="1.0" encoding="UTF-8"?>
<svg width="35px" height="35px" viewBox="0 0 35 35" version="1.1" xmlns="http://www.w3.org/2000/svg" xmlns:xlink="http://www.w3.org/1999/xlink">
    <!-- Generator: Sketch 47.1 (45422) - http://www.bohemiancoding.com/sketch -->
    <title>icons/license/motorcycle</title>
    <desc>Created with Sketch.</desc>
    <defs></defs>
    <g id="Symbols" stroke="none" stroke-width="1" fill="none" fill-rule="evenodd">
        <g id="icons/license/motorcycle" stroke="#FFFFFF" stroke-width="0.33" fill="#FFFFFF">
            <path d="M28.3993902,21.9284615 L27.5004878,19.7617308 C27.6804878,19.7178846 27.8678049,19.6923077 28.0609756,19.6923077 C29.372561,19.6923077 30.4393902,20.7577692 30.4393902,22.0676731 C30.4393902,23.3775769 29.372561,24.4430385 28.0609756,24.4430385 C26.7493902,24.4430385 25.682561,23.3775769 25.682561,22.0676731 C25.682561,21.2104808 26.1413415,20.4596154 26.8247561,20.0419808 L27.7232927,22.2083462 C27.7818293,22.3486538 27.9182927,22.4337885 28.0613415,22.4337885 C28.1081707,22.4337885 28.1557317,22.4246538 28.2014634,22.4060192 C28.3880488,22.3289231 28.4765854,22.1148077 28.3993902,21.9284615 L28.3993902,21.9284615 Z M28.0613415,26.2692308 C25.7414634,26.2692308 23.8540244,24.3849423 23.8540244,22.0684038 C23.8540244,20.4504808 24.7756098,19.0455769 26.1204878,18.3433077 L26.5419512,19.3598077 C25.5936585,19.8925385 24.9508537,20.90575 24.9508537,22.0676731 C24.9508537,23.7802308 26.3462195,25.1738077 28.0609756,25.1738077 C29.7760976,25.1738077 31.1710976,23.7802308 31.1710976,22.0676731 C31.1710976,20.35475 29.7760976,18.9615385 28.0609756,18.9615385 C27.7686585,18.9615385 27.4865854,19.0050192 27.2180488,19.0806538 L26.795122,18.0608654 C27.195,17.9344423 27.620122,17.86575 28.0613415,17.86575 C30.3812195,17.86575 32.2682927,19.7511346 32.2682927,22.0684038 C32.2682927,24.3849423 30.3812195,26.2692308 28.0613415,26.2692308 L28.0613415,26.2692308 Z M20.8445122,21.7022885 L16.5289024,21.7019231 C16.5285366,21.6924231 16.527439,21.6829231 16.5270732,21.6734231 C16.5230488,21.5864615 16.5160976,21.5002308 16.5095122,21.4136346 C16.5058537,21.3610192 16.5029268,21.3084038 16.4981707,21.2561538 C16.487561,21.1436154 16.4736585,21.0318077 16.4590244,20.9203654 C16.4557317,20.89625 16.4535366,20.8721346 16.449878,20.8483846 C16.1912195,19.0178077 15.3512195,17.3268077 14.0195122,15.9953462 C14.0107317,15.9865769 13.9990244,15.9832885 13.9895122,15.9756154 C12.4346341,14.4347885 10.2969512,13.4804038 7.93902439,13.4804038 L3.95780488,13.4807692 L4.50658537,12.3846154 L10.6232927,12.3846154 L16.055122,14.1932692 C16.1868293,14.23675 16.3313415,14.2027692 16.4293902,14.1048462 L17.6118293,12.9235577 C17.8997561,12.6363654 18.5085366,12.3846154 18.9142683,12.3846154 L22.1158537,12.3846154 C23.3260976,12.3846154 24.3106098,11.401 24.3106098,10.1923077 L24.3106098,8.73076923 L25.0686585,8.73076923 L27.5282927,14.8699615 C26.7541463,14.9265962 26.0165854,15.1122115 25.3284146,15.3942885 C25.3178049,15.3975769 25.3064634,15.3961154 25.2958537,15.4005 C25.2845122,15.40525 25.2771951,15.4143846 25.2665854,15.4202308 C22.7740244,16.4696154 20.9860976,18.8698269 20.8445122,21.7022885 L20.8445122,21.7022885 Z M7.93939024,26.2692308 C5.61914634,26.2692308 3.73170732,24.3849423 3.73170732,22.0684038 C3.73170732,19.7511346 5.61914634,17.86575 7.93939024,17.86575 C8.96780488,17.86575 9.90987805,18.2373462 10.6415854,18.8519231 L9.86121951,19.6309231 C9.33146341,19.2132885 8.66487805,18.9619038 7.93902439,18.9619038 C6.22426829,18.9619038 4.82926829,20.3551154 4.82926829,22.0676731 C4.82926829,23.7798654 6.22426829,25.1734423 7.93902439,25.1734423 C9.53012195,25.1734423 10.8439024,23.9735192 11.0253659,22.4326923 L12.1280488,22.4326923 C11.9421951,24.5789615 10.1363415,26.2692308 7.93939024,26.2692308 L7.93939024,26.2692308 Z M8.82256098,21.7019231 L9.85682927,20.6689808 C10.0763415,20.9682308 10.2263415,21.3197308 10.2859756,21.7019231 L8.82256098,21.7019231 Z M7.60097561,22.20725 C7.65768293,22.3439038 7.79121951,22.4326923 7.93902439,22.4326923 L10.2859756,22.4326923 C10.1092683,23.5690385 9.12585366,24.4426731 7.93902439,24.4426731 C6.62780488,24.4426731 5.56097561,23.3772115 5.56097561,22.0676731 C5.56097561,20.7581346 6.62780488,19.6926731 7.93902439,19.6926731 C8.46292683,19.6926731 8.94585366,19.8647692 9.33914634,20.1523269 L7.68036585,21.8089808 C7.57573171,21.9134808 7.54463415,22.0705962 7.60097561,22.20725 L7.60097561,22.20725 Z M11.0253659,21.7019231 C10.9565854,21.1191346 10.7253659,20.5864038 10.3789024,20.1475769 L11.1589024,19.3685769 C11.7,20.0112885 12.0508537,20.8176923 12.1276829,21.7019231 L11.0253659,21.7019231 Z M14.037439,17.1141538 C14.1753659,17.2833269 14.3067073,17.4583462 14.4303659,17.6388462 C14.4442683,17.6589423 14.4589024,17.6790385 14.4728049,17.6995 C15.0237805,18.5186923 15.4236585,19.4471346 15.6340244,20.4446346 C15.6468293,20.5041923 15.6552439,20.5648462 15.6662195,20.6247692 C15.6995122,20.8030769 15.7280488,20.9832115 15.7489024,21.1655385 C15.7591463,21.2539615 15.7657317,21.3431154 15.7726829,21.4326346 C15.78,21.5214231 15.7821951,21.6120385 15.7862195,21.7019231 L12.8593902,21.7019231 C12.7792683,20.6167308 12.347561,19.6294615 11.6762195,18.8519231 L13.745122,16.7856731 C13.8171951,16.8649615 13.8921951,16.9413269 13.9609756,17.0231731 C13.9865854,17.0535 14.012561,17.0834615 14.037439,17.1141538 L14.037439,17.1141538 Z M28.0613415,17.1349808 C27.5213415,17.1349808 27.002561,17.2252308 26.5156098,17.386 L25.9203659,15.9511346 C26.5909756,15.7161923 27.3084146,15.5817308 28.0580488,15.5813654 C28.0591463,15.5813654 28.059878,15.5820962 28.0609756,15.5820962 C28.9112195,15.5820962 29.7453659,15.7501731 30.5403659,16.0819423 C30.5407317,16.0819423 30.5410976,16.0823077 30.5418293,16.0823077 C30.5879268,16.1016731 30.6358537,16.1111731 30.6830488,16.1111731 C30.8260976,16.1111731 30.9618293,16.0267692 31.0207317,15.8864615 C31.0986585,15.7004808 31.0108537,15.4863654 30.8242683,15.4085385 C30.8231707,15.4078077 30.8220732,15.4074423 30.8209756,15.4070769 C30.0168293,15.0712885 29.1739024,14.8944423 28.3141463,14.86375 L25.6562195,8.22946154 C25.6006098,8.09098077 25.4659756,8 25.3163415,8 L23.9447561,8 C23.742439,8 23.5789024,8.16369231 23.5789024,8.36538462 L23.5789024,10.1923077 C23.5789024,10.3958269 23.5364634,10.5894808 23.4610976,10.7659615 C22.8190244,10.1871923 21.977561,9.82692308 21.2067073,9.82692308 C21.0043902,9.82692308 20.8408537,9.99061538 20.8408537,10.1923077 C20.8408537,10.394 21.0043902,10.5576923 21.2067073,10.5576923 C21.8078049,10.5576923 22.497439,10.8646154 23.0096341,11.3410769 C22.7615854,11.534 22.4539024,11.6538462 22.1158537,11.6538462 L18.9142683,11.6538462 C18.3171951,11.6538462 17.5178049,11.9845192 17.0945122,12.4069038 L16.0719512,13.4285192 L10.7985366,11.6724808 C10.7612195,11.6600577 10.7220732,11.6538462 10.682561,11.6538462 L4.2804878,11.6538462 C4.14182927,11.6538462 4.0152439,11.7320385 3.95341463,11.8559038 L3.03878049,13.6831923 C2.98207317,13.7964615 2.98792683,13.9309231 3.05487805,14.0387115 C3.12146341,14.1465 3.23926829,14.2119038 3.36585366,14.2119038 L7.93902439,14.2111731 C9.97646341,14.2111731 11.8291463,14.9952885 13.2278049,16.2690192 L11.1585366,18.3352692 C10.2932927,17.5895192 9.16939024,17.1349808 7.93939024,17.1349808 C5.21597561,17.1349808 3,19.3481154 3,22.0684038 C3,24.7875962 5.21597561,27 7.93939024,27 C10.5395122,27 12.6717073,24.9816154 12.8593902,22.4326923 L16.1707317,22.4326923 L21.2008537,22.4330577 C21.2981707,22.4330577 21.3910976,22.3943269 21.4595122,22.326 C21.5282927,22.2573077 21.5667073,22.1645 21.5667073,22.0676731 C21.5667073,19.49975 23.0721951,17.2822308 25.2446341,16.2321154 L25.8402439,17.6680769 C24.2304878,18.4821538 23.1223171,20.1464808 23.1223171,22.0684038 C23.1223171,24.7875962 25.3379268,27 28.0613415,27 C30.7847561,27 33,24.7875962 33,22.0684038 C33,19.3481154 30.7847561,17.1349808 28.0613415,17.1349808 L28.0613415,17.1349808 Z" id="motorcycle"></path>
        </g>
    </g>
</svg>