<?xml version="1.0" encoding="UTF-8"?>
<svg width="35px" height="35px" viewBox="0 0 35 35" version="1.1" xmlns="http://www.w3.org/2000/svg" xmlns:xlink="http://www.w3.org/1999/xlink">
    <!-- Generator: Sketch 47.1 (45422) - http://www.bohemiancoding.com/sketch -->
    <title>icons/license/scooter</title>
    <desc>Created with Sketch.</desc>
    <defs></defs>
    <g id="Symbols" stroke="none" stroke-width="1" fill="none" fill-rule="evenodd">
        <g id="icons/license/scooter" stroke="#FFFFFF" stroke-width="0.33" fill="#FFFFFF">
            <path d="M28.2310976,23.5487666 C28.2892683,23.6948767 28.4257317,23.7829222 28.5691463,23.7829222 C28.6159756,23.7829222 28.6635366,23.773814 28.7092683,23.7540797 C28.8954878,23.6736243 28.9843902,23.4516129 28.9071951,23.2580645 L28.2859756,21.7039848 C28.3785366,21.6872865 28.472561,21.6743833 28.5695122,21.6743833 C29.4885366,21.6743833 30.2356098,22.4500949 30.2356098,23.4041746 C30.2356098,24.3571157 29.4885366,25.1324478 28.5695122,25.1324478 C27.650122,25.1324478 26.9019512,24.3571157 26.9019512,23.4041746 C26.9019512,22.8216319 27.1832927,22.3074004 27.6102439,21.9939279 L28.2310976,23.5487666 Z M28.5691463,27.2409867 C26.5295122,27.2409867 24.87,25.5191651 24.87,23.4034156 C24.87,21.9426945 25.6617073,20.6705882 26.822561,20.0223909 L27.324878,21.2800759 C26.6341463,21.7176471 26.1702439,22.5047438 26.1702439,23.4041746 C26.1702439,24.7753321 27.2465854,25.8914611 28.5695122,25.8914611 C29.8917073,25.8914611 30.9673171,24.7753321 30.9673171,23.4041746 C30.9673171,22.0318786 29.8917073,20.91537 28.5695122,20.91537 C28.3734146,20.91537 28.1831707,20.942315 28.0006098,20.9886148 L27.4982927,19.7316888 C27.8378049,19.6250474 28.1967073,19.5662239 28.5691463,19.5662239 C30.6087805,19.5662239 32.2682927,21.287666 32.2682927,23.4034156 C32.2682927,25.5191651 30.6087805,27.2409867 28.5691463,27.2409867 L28.5691463,27.2409867 Z M22.1158537,23.0235294 L20.8979268,23.0227704 L22.8036585,14.3222011 L23.9162195,13.23074 C24.2597561,14.6865275 25.5278049,15.770019 27.0354878,15.770019 L28.5687805,15.770019 C29.1365854,15.770019 29.6180488,16.1620493 29.775,16.6986717 C29.3110976,16.6986717 28.6196341,16.6990512 28.5742683,16.6986717 L28.5695122,16.6986717 C27.6958537,16.6986717 26.8631707,16.8808349 26.102561,17.2079696 C26.1,17.2087287 26.097439,17.2083491 26.094878,17.2094877 C26.0912195,17.2110057 26.0893902,17.2144213 26.0857317,17.2159393 C23.8580488,18.1817837 22.2578049,20.4030361 22.1158537,23.0235294 L22.1158537,23.0235294 Z M14.7479268,23.0239089 L12.7152439,23.0239089 L8.64987805,23.0239089 L6.61756098,23.0239089 L3.73170732,23.0239089 L3.73170732,19.1863378 C3.73170732,17.5358634 5.02573171,16.1927894 6.61609756,16.1920304 C6.61682927,16.1920304 6.61719512,16.1924099 6.61756098,16.1924099 L14.4841463,16.1924099 L16.6796341,23.0239089 L14.7479268,23.0239089 Z M12.3091463,23.7836812 C12.1419512,24.5544592 11.4764634,25.1324478 10.6832927,25.1324478 C9.88939024,25.1324478 9.22353659,24.5544592 9.05634146,23.7829222 L12.3091463,23.7836812 Z M10.6832927,27.2406072 C8.76658537,27.2406072 7.18609756,25.7214421 7.00170732,23.7829222 L8.3147561,23.7829222 C8.49182927,24.9749526 9.4847561,25.8914611 10.6832927,25.8914611 C11.8807317,25.8914611 12.8732927,24.9749526 13.0503659,23.7829222 L14.3641463,23.7829222 C14.1797561,25.7214421 12.5992683,27.2406072 10.6832927,27.2406072 L10.6832927,27.2406072 Z M8.64987805,14.0842505 L12.7159756,14.0842505 C13.5091463,14.0842505 14.1746341,14.6618596 14.3418293,15.4330171 L7.02402439,15.4330171 C7.19121951,14.6618596 7.85707317,14.0842505 8.64987805,14.0842505 L8.64987805,14.0842505 Z M28.5691463,18.8072106 C28.097561,18.8072106 27.6439024,18.8857685 27.2173171,19.027704 L26.7193902,17.7814042 C27.3007317,17.5749526 27.9212195,17.457685 28.5695122,17.457685 L28.5695122,17.4478178 C28.7107317,17.4580645 28.9492683,17.458444 29.3820732,17.457685 C30.3457317,17.457685 30.3457317,17.457685 30.4532927,17.3461101 C30.5220732,17.2747628 30.5604878,17.1783681 30.5604878,17.0777989 C30.5604878,15.9381404 29.6670732,15.0110057 28.5687805,15.0110057 L27.0354878,15.0110057 C25.6686585,15.0110057 24.5564634,13.8573055 24.5564634,12.4394687 C24.5564634,12.4383302 24.5560976,12.4375712 24.5560976,12.4368121 L24.5568293,7.37950664 C24.5568293,7.16963947 24.3932927,7 24.1909756,7 C23.9890244,7 23.825122,7.16963947 23.825122,7.37950664 L23.8243902,11.2800759 C23.2657317,10.7480076 22.5109756,10.4003795 21.795,10.4003795 L20.064878,10.4003795 C19.862561,10.4003795 19.6990244,10.5703985 19.6990244,10.7798861 C19.6990244,10.9897533 19.862561,11.1593928 20.064878,11.1593928 L21.795,11.1593928 C22.5212195,11.1593928 23.3535366,11.6907021 23.7380488,12.3609108 L22.2197561,13.8500949 C22.167439,13.9017078 22.1304878,13.9685009 22.1143902,14.0417457 L20.1468293,23.0239089 L17.4508537,23.0239089 L15.1108537,15.741556 C15.0739024,14.4026565 14.015122,13.3252372 12.7159756,13.3252372 L8.64987805,13.3252372 C7.44621951,13.3252372 6.45,14.2504744 6.2802439,15.4508539 C4.44329268,15.6280835 3,17.2349146 3,19.1863378 L3,23.4034156 C3,23.6132827 3.16390244,23.7829222 3.36585366,23.7829222 L6.27036585,23.7829222 C6.45731707,26.140038 8.36304878,27.9996205 10.6832927,27.9996205 C13.0028049,27.9996205 14.9081707,26.140038 15.095122,23.7829222 L17.1870732,23.7829222 L22.4707317,23.7829222 C22.4989024,23.7829222 22.5234146,23.7726755 22.550122,23.7662239 C22.5706098,23.7616698 22.592561,23.7620493 22.6119512,23.7533207 C22.6562195,23.7339658 22.6960976,23.7066414 22.7293902,23.6717268 C22.7297561,23.6717268 22.7297561,23.6717268 22.730122,23.6713472 C22.7480488,23.6527514 22.757561,23.629222 22.7710976,23.6075901 C22.7831707,23.5882353 22.7992683,23.572296 22.8080488,23.5506641 C22.8270732,23.5043643 22.8373171,23.4542694 22.8373171,23.4030361 C22.8373171,21.0656546 24.1478049,19.0444023 26.0440244,18.0736243 L26.5423171,19.3210626 C25.1165854,20.0857685 24.1382927,21.626945 24.1382927,23.4034156 C24.1382927,25.9377609 26.1259756,28 28.5691463,28 C31.0123171,28 33,25.9377609 33,23.4034156 C33,20.8690702 31.0123171,18.8072106 28.5691463,18.8072106 L28.5691463,18.8072106 Z" id="Fill-1"></path>
        </g>
    </g>
</svg>