<?xml version="1.0" encoding="UTF-8"?>
<svg width="35px" height="35px" viewBox="0 0 35 35" version="1.1" xmlns="http://www.w3.org/2000/svg" xmlns:xlink="http://www.w3.org/1999/xlink">
    <!-- Generator: Sketch 47.1 (45422) - http://www.bohemiancoding.com/sketch -->
    <title>icons/license/trailer</title>
    <desc>Created with Sketch.</desc>
    <defs></defs>
    <g id="Symbols" stroke="none" stroke-width="1" fill="none" fill-rule="evenodd">
        <g id="icons/license/trailer" stroke="#FFFFFF" stroke-width="0.33" fill="#FFFFFF" fill-rule="nonzero">
            <path d="M3.80232475,8.0004016 C2.81007187,8.0004016 2,8.82151199 2,9.82728606 L2,21.8847235 C2,22.8904976 2.81007187,23.711608 3.80232475,23.711608 L4.54578371,23.711608 C4.72578801,25.5563042 6.26178972,27 8.12790415,27 C9.99401857,27 11.5300203,25.5563042 11.7100246,23.711608 L23.2899611,23.711608 C23.4699654,25.5563042 25.0059671,27 26.8720815,27 C28.7381956,27 30.2741977,25.5563042 30.454202,23.711608 L31.1976609,23.711608 C32.1899139,23.711608 32.9999857,22.8904976 32.9999857,21.8847235 L32.9999857,16.769447 C33.0011412,16.6377424 32.932283,16.5155985 32.8197532,16.4497422 L29.5417751,14.5315135 L28.5279674,12.3963423 L30.7808733,12.4191784 C31.9915215,12.4338446 32.9999857,11.4200045 32.9999857,10.1926629 C32.9999857,8.97894887 32.0345935,8.0004016 30.837196,8.0004016 C30.8259376,7.99986613 30.8146607,7.99986613 30.8034024,8.0004016 C30.6043231,8.0098606 30.4505024,8.18111344 30.4598342,8.38290553 C30.4691661,8.58469762 30.6381167,8.74061438 30.837196,8.73115538 C31.6558977,8.73115538 32.2790558,9.36280507 32.2790558,10.1926629 C32.2790558,11.0088934 31.5861801,11.6981802 30.7808733,11.6884246 L27.9534764,11.6541705 C27.8287996,11.6533007 27.71253,11.717793 27.6460382,11.8247 C27.5795463,11.931607 27.5722726,12.0657503 27.626805,12.1793998 L28.9334905,14.9539806 C28.9651082,15.0211348 29.0161982,15.0769046 29.0799294,15.113833 L31.2877772,16.4040701 L30.1162661,16.4040701 C30.1050077,16.4035347 30.0937308,16.4035347 30.0824725,16.4040701 C29.8967049,16.4218168 29.7549966,16.5803153 29.7558011,16.769447 L29.7558011,19.3270853 C29.755821,19.528869 29.917195,19.692442 30.1162661,19.6924622 L32.2790558,19.6924622 L32.2790558,21.8847235 C32.2790558,22.4982998 31.8029886,22.9808542 31.1976609,22.9808542 L30.454202,22.9808542 C30.2741977,21.136158 28.7381956,19.6924622 26.8720815,19.6924622 C25.0059671,19.6924622 23.4699654,21.136158 23.2899611,22.9808542 L18.5813877,22.9808542 L18.5813877,12.0195474 C18.5813678,11.8177637 18.4199938,11.6541907 18.2209227,11.6541705 L13.5348784,11.6541705 C13.5236201,11.6536351 13.5123431,11.6536351 13.5010848,11.6541705 C13.3153172,11.6719172 13.1736089,11.8304157 13.1744134,12.0195474 L13.1744134,22.9808542 L11.7100246,22.9808542 C11.5300203,21.136158 9.99401857,19.6924622 8.12790415,19.6924622 C6.26178972,19.6924622 4.72578801,21.136158 4.54578371,22.9808542 L3.80232475,22.9808542 C3.19699704,22.9808542 2.7209299,22.4982998 2.7209299,21.8847235 L2.7209299,16.4040701 L11.0116237,16.4040701 C11.2106948,16.4040499 11.3720688,16.240477 11.3720887,16.0386932 L11.3720887,12.0195474 C11.3720688,11.8177637 11.2106948,11.6541907 11.0116237,11.6541705 L2.7209299,11.6541705 L2.7209299,9.82728606 C2.7209299,9.21370974 3.19699704,8.73115538 3.80232475,8.73115538 L28.6744063,8.73115538 C28.8044029,8.73301891 28.9253192,8.66378891 28.990854,8.5499749 C29.0563889,8.43616089 29.0563889,8.29539608 28.990854,8.18158208 C28.9253192,8.06776807 28.8044029,7.99853807 28.6744063,8.0004016 L3.80232475,8.0004016 Z M20.6765902,11.6541705 C20.5042584,11.6875008 20.3806209,11.8417435 20.3837124,12.0195474 L20.3837124,16.0386932 C20.3837323,16.240477 20.5451063,16.4040499 20.7441774,16.4040701 L27.5930114,16.4040701 C27.7145509,16.4031274 27.8274396,16.34017 27.8932795,16.2366123 C27.9591195,16.1330546 27.9690461,16.0028397 27.9196828,15.8902589 L26.117358,11.871113 C26.059888,11.7400983 25.9321367,11.6552586 25.7906867,11.6541705 L20.7441774,11.6541705 C20.7329191,11.6536351 20.7216421,11.6536351 20.7103838,11.6541705 C20.6991255,11.6536351 20.6878485,11.6536351 20.6765902,11.6541705 Z M2.7209299,12.3849243 L6.3255794,12.3849243 L6.3255794,15.6733163 L2.7209299,15.6733163 L2.7209299,12.3849243 Z M7.0465093,12.3849243 L10.6511588,12.3849243 L10.6511588,15.6733163 L7.0465093,15.6733163 L7.0465093,12.3849243 Z M13.8953433,12.3849243 L17.8604578,12.3849243 L17.8604578,22.9808542 L13.8953433,22.9808542 L13.8953433,12.3849243 Z M21.1046423,12.3849243 L25.5653961,12.3849243 L27.0410495,15.6733163 L21.1046423,15.6733163 L21.1046423,12.3849243 Z M30.476731,17.1348239 L32.2790558,17.1348239 L32.2790558,18.9617084 L30.476731,18.9617084 L30.476731,17.1348239 Z M8.12790415,20.4232159 C9.72480857,20.4232159 11.0116237,21.7275665 11.0116237,23.3462311 C11.0116237,24.964896 9.72480857,26.2692462 8.12790415,26.2692462 C6.53099972,26.2692462 5.24418455,24.964896 5.24418455,23.3462311 C5.24418455,21.7275665 6.53099972,20.4232159 8.12790415,20.4232159 Z M26.8720815,20.4232159 C28.468986,20.4232159 29.7558011,21.7275665 29.7558011,23.3462311 C29.7558011,24.964896 28.468986,26.2692462 26.8720815,26.2692462 C25.2751771,26.2692462 23.9883619,24.964896 23.9883619,23.3462311 C23.9883619,21.7275665 25.2751771,20.4232159 26.8720815,20.4232159 Z M8.12790415,21.8847235 C7.33585631,21.8847235 6.68604435,22.5433906 6.68604435,23.3462311 C6.68604435,24.1490719 7.33585631,24.8077386 8.12790415,24.8077386 C8.91995198,24.8077386 9.56976395,24.1490719 9.56976395,23.3462311 C9.56976395,22.5433906 8.91995198,21.8847235 8.12790415,21.8847235 Z M26.8720815,21.8847235 C26.0800337,21.8847235 25.4302217,22.5433906 25.4302217,23.3462311 C25.4302217,24.1490719 26.0800337,24.8077386 26.8720815,24.8077386 C27.6641294,24.8077386 28.3139413,24.1490719 28.3139413,23.3462311 C28.3139413,22.5433906 27.6641294,21.8847235 26.8720815,21.8847235 Z M8.12790415,22.6154773 C8.53033226,22.6154773 8.84883405,22.9383192 8.84883405,23.3462311 C8.84883405,23.754143 8.53033226,24.0769849 8.12790415,24.0769849 C7.72547603,24.0769849 7.40697425,23.754143 7.40697425,23.3462311 C7.40697425,22.9383192 7.72547603,22.6154773 8.12790415,22.6154773 Z M26.8720815,22.6154773 C27.2745097,22.6154773 27.5930114,22.9383192 27.5930114,23.3462311 C27.5930114,23.754143 27.2745097,24.0769849 26.8720815,24.0769849 C26.4696534,24.0769849 26.1511516,23.754143 26.1511516,23.3462311 C26.1511516,22.9383192 26.4696534,22.6154773 26.8720815,22.6154773 Z" id="trailer"></path>
        </g>
    </g>
</svg>