<?xml version="1.0" encoding="UTF-8"?>
<svg width="14px" height="17px" viewBox="0 0 14 17" version="1.1" xmlns="http://www.w3.org/2000/svg" xmlns:xlink="http://www.w3.org/1999/xlink">
    <!-- Generator: Sketch 49 (51002) - http://www.bohemiancoding.com/sketch -->
    <title>Slice 1</title>
    <desc>Created with Sketch.</desc>
    <defs></defs>
    <g id="Page-1" stroke="none" stroke-width="1" fill="none" fill-rule="evenodd">
        <path d="M6.969,0 C8.39500713,0 9.63316142,0.23766429 10.6835,0.713 C11.7338386,1.18833571 12.5426638,1.86299563 13.11,2.737 C13.6773362,3.61100437 13.961,4.64599402 13.961,5.842 C13.961,7.02267257 13.6773362,8.05382893 13.11,8.9355 C12.5426638,9.81717108 11.7338386,10.491831 10.6835,10.9595 C9.63316142,11.427169 8.39500713,11.661 6.969,11.661 L3.726,11.661 L3.726,16.1 L0,16.1 L0,0 L6.969,0 Z M6.762,8.625 C7.88133893,8.625 8.73233042,8.38350242 9.315,7.9005 C9.89766958,7.41749758 10.189,6.73133778 10.189,5.842 C10.189,4.93732881 9.89766958,4.24350242 9.315,3.7605 C8.73233042,3.27749758 7.88133893,3.036 6.762,3.036 L3.726,3.036 L3.726,8.625 L6.762,8.625 Z" id="Label-Copy-3" fill="#FFFFFF"></path>
    </g>
</svg>