<?xml version="1.0" encoding="UTF-8"?>
<svg width="14px" height="17px" viewBox="0 0 14 17" version="1.1" xmlns="http://www.w3.org/2000/svg" xmlns:xlink="http://www.w3.org/1999/xlink">
    <!-- Generator: Sketch 49 (51002) - http://www.bohemiancoding.com/sketch -->
    <title>Slice 1</title>
    <desc>Created with Sketch.</desc>
    <defs></defs>
    <g id="Page-1" stroke="none" stroke-width="1" fill="none" fill-rule="evenodd">
        <path d="M6.555,16.652 C5.28232697,16.652 4.05183927,16.4795017 2.8635,16.1345 C1.67516072,15.7894983 0.72067027,15.3410028 0,14.789 L1.265,11.983 C1.95500345,12.4890025 2.77532858,12.8953318 3.726,13.202 C4.67667142,13.5086682 5.62732858,13.662 6.578,13.662 C7.63600529,13.662 8.41799747,13.5048349 8.924,13.1905 C9.43000253,12.8761651 9.683,12.4583359 9.683,11.937 C9.683,11.5536647 9.53350149,11.2355013 9.2345,10.9825 C8.9354985,10.7294987 8.552169,10.5263341 8.0845,10.373 C7.616831,10.2196659 6.98433732,10.0510009 6.187,9.867 C4.9603272,9.57566521 3.95600391,9.28433479 3.174,8.993 C2.39199609,8.70166521 1.72116946,8.23400322 1.1615,7.59 C0.601830535,6.94599678 0.322,6.0873387 0.322,5.014 C0.322,4.07866199 0.57499747,3.23150379 1.081,2.4725 C1.58700253,1.7134962 2.34982823,1.11166889 3.3695,0.667 C4.38917177,0.22233111 5.63499264,0 7.107,0 C8.13433847,0 9.13866176,0.12266544 10.12,0.368 C11.1013382,0.61333456 11.9599963,0.9659977 12.696,1.426 L11.546,4.255 C10.0586592,3.41166245 8.57134077,2.99 7.084,2.99 C6.04132812,2.99 5.27083583,3.15866498 4.7725,3.496 C4.27416417,3.83333502 4.025,4.27799724 4.025,4.83 C4.025,5.38200276 4.31249713,5.79216532 4.8875,6.0605 C5.46250287,6.32883467 6.34032743,6.59333203 7.521,6.854 C8.7476728,7.14533479 9.75199609,7.43666521 10.534,7.728 C11.3160039,8.01933479 11.9868305,8.47933019 12.5465,9.108 C13.1061695,9.73666981 13.386,10.5876613 13.386,11.661 C13.386,12.5810046 13.1291692,13.4204962 12.6155,14.1795 C12.1018308,14.9385038 11.3313385,15.5403311 10.304,15.985 C9.27666153,16.4296689 8.02700736,16.652 6.555,16.652 Z" id="Label-Copy-3" fill="#FFFFFF"></path>
    </g>
</svg>