<?xml version="1.0" encoding="UTF-8"?>
<svg width="52px" height="38px" viewBox="0 0 52 38" version="1.1" xmlns="http://www.w3.org/2000/svg" xmlns:xlink="http://www.w3.org/1999/xlink">
    <!-- Generator: Sketch 49.1 (51147) - http://www.bohemiancoding.com/sketch -->
    <title>Slice 1</title>
    <desc>Created with Sketch.</desc>
    <defs></defs>
    <g id="Page-1" stroke="none" stroke-width="1" fill="none" fill-rule="evenodd">
        <g id="noun_631481_cc" fill="#002364" fill-rule="nonzero">
            <path d="M26.1306731,0 C24.5337682,0 23.2388954,1.30313442 23.2388954,2.91022676 L23.2388954,9.70856125 L16.0831378,10.9461705 L15.243317,9.72843161 C14.6742336,8.90327446 13.7570512,8.46629796 12.8289188,8.47804876 C12.2720422,8.4850961 11.7117676,8.65390728 11.2197898,8.99750418 L1.24276958,15.9654424 C-0.0691690418,16.8816986 -0.394028065,18.6950769 0.51647576,20.0153482 L12.0567911,36.7493289 C12.9672949,38.0696008 14.7690903,38.3965289 16.0810225,37.4802581 L16.8898178,36.9153833 C17.379741,37.1217449 17.9304164,37.1993587 18.4926,37.1020158 L30.4602301,35.0298762 C32.0340136,34.7573848 33.0872343,33.2521992 32.8168072,31.6683183 L32.3901974,29.169682 L39.3315919,32.426924 C40.7788975,33.106068 42.4966707,32.4739645 43.1717827,31.0175806 L51.728652,12.5577593 C52.4037651,11.1013475 51.7754577,9.37242221 50.3282446,8.69306887 L41.1656603,4.39195142 L41.1656603,2.91022676 C41.1656603,1.30313442 39.8714923,6.19732413e-15 38.2745874,6.19732413e-15 L26.1306731,0 Z M26.1306731,0.872855213 L38.2745874,0.872855213 C39.3924192,0.872855213 40.2983384,1.78526218 40.2983384,2.91022676 L40.2983384,3.98319975 L39.3224255,3.52832171 C38.023547,2.92290849 36.5126893,3.36303886 35.7262135,4.51046074 L27.4316554,4.51046074 L27.4316554,5.96521942 L35.0034453,5.96521942 L34.4611928,7.12902637 L25.6963073,7.12902637 L25.6963073,8.58449445 L33.7835536,8.58449445 L33.2504681,9.7483014 L25.6963073,9.7483014 L25.6963073,11.2030595 L32.5728289,11.2030595 L32.0305764,12.3668665 L25.6963073,12.3668665 L25.6963073,13.8223345 L31.3621043,13.8223345 L30.8198517,14.9861415 L25.6963073,14.9861415 L25.6963073,16.4409002 L30.1422126,16.4409002 L29.6091271,17.6047071 L25.6963073,17.6047071 L25.6963073,19.0601746 L28.9314879,19.0601746 L26.9253655,23.3882592 C26.6357,24.0131939 26.5840964,24.6950103 26.7356827,25.3163458 L26.1306731,25.3163458 C25.0128413,25.3163458 24.1062172,24.4039394 24.1062172,23.2789742 L24.1062172,2.91022676 C24.1062172,1.78526218 25.0128413,0.872855213 26.1306731,0.872855213 Z M37.9763136,4.12867562 C38.302074,4.10855697 38.6356326,4.17100037 38.9522271,4.31956847 L49.9580462,9.48431621 C50.9711501,9.95973969 51.4150001,11.1657109 50.9424212,12.1851991 L42.3855519,30.6450204 C41.9129731,31.6645086 40.7064043,32.1118607 39.6933288,31.6363849 L28.6875097,26.4709278 C27.6744307,25.9954508 27.2390173,24.780307 27.7115962,23.7608188 L36.2684655,5.30170749 C36.5933638,4.60080976 37.259641,4.17294363 37.9763136,4.12867562 Z M12.840906,9.35090397 C13.4905969,9.34267626 14.1327767,9.64898097 14.5311256,10.2265973 L15.1389559,11.1079686 L14.0798361,11.2938935 C12.6697087,11.5414366 11.6776631,12.7704553 11.6816561,14.1643807 L4.86718669,18.9246342 L5.69149474,20.1196652 L11.9122368,15.7745495 L12.1258944,17.0419635 L4.92571385,22.0711702 L5.7500219,23.2669106 L12.3938476,18.6258763 L12.6152612,19.8883228 L6.40932759,24.2227936 L7.23434052,25.4178246 L12.8832144,21.4722357 L13.0968714,22.7396496 L7.89364621,26.374417 L8.71795426,27.5694474 L13.3718763,24.318595 L13.5862388,25.5860089 L9.37725995,28.5260404 L10.2015686,29.7210708 L13.8534864,27.1699212 L14.0749007,28.4323677 L10.8608737,30.6769538 L11.6851823,31.8726942 L14.3428532,30.0162806 L14.5572157,31.2836945 L12.3451929,32.828576 L13.1695009,34.0243158 L14.8322206,32.8626382 L15.147418,34.723311 C15.262572,35.4030865 15.6072817,35.9923443 16.0838433,36.4157954 L15.5860143,36.7635224 C14.6676949,37.4049585 13.4070832,37.175321 12.7696868,36.2511655 L1.22866661,19.5178919 C0.591268515,18.5937313 0.819468783,17.3243427 1.73777723,16.6828868 L11.7140926,9.71423866 C12.0584585,9.47369286 12.4510897,9.35583944 12.840906,9.35090397 Z M23.2388954,10.5956094 L23.2388954,14.2814706 L16.1176901,15.5148218 L16.3630786,16.9482914 L23.2388954,15.7582278 L23.2388954,16.9390664 L14.8491437,18.3916958 L15.0945323,19.8258747 L23.2388954,18.4158237 L23.2388954,19.5959517 L15.2905613,20.97265 L15.5359493,22.406829 L23.2388954,21.0727095 L23.2388954,22.2535475 L15.7319783,23.5536048 L15.9773669,24.9877838 L23.2762678,23.7239179 C23.4894007,25.1194464 24.6843532,26.189201 26.1306731,26.189201 L27.1150482,26.189201 C27.4006102,26.6398547 27.8087663,27.0195646 28.3257728,27.2621745 L31.4312076,28.7194254 L31.9593572,31.8131017 C32.1486366,32.9218207 31.4109744,33.9819097 30.3093302,34.1726473 L18.3417006,36.2447927 C17.2400563,36.4355361 16.1935413,35.6872618 16.0041625,34.5785614 L12.5750687,14.5035875 C12.44487,13.7413535 12.7496714,13.0074995 13.3133491,12.559888 C13.5695624,12.3564303 13.8794246,12.2164307 14.2236848,12.1568138 L23.2388954,10.5956094 Z" id="Shape"></path>
            <polygon id="Shape" points="38.6205185 8 49 12.7061155 48.3794845 14 38 9.29388446"></polygon>
            <polygon id="Shape" points="35.6403748 10 48 14.8454363 47.3596216 16 35 11.1545632"></polygon>
            <polygon id="Shape" points="35.6403784 13 48 17.8454364 47.3596258 19 35 14.1545636"></polygon>
            <polygon id="Shape" points="33.6403744 14 46 18.8454363 45.3596256 20 33 15.1545637"></polygon>
            <polygon id="Shape" points="32.5953185 17 40 20.6503194 39.4046781 22 32 18.3496789"></polygon>
            <polygon id="Shape" points="29.7467704 30 22 31.4264204 22.2532302 33 30 31.5735784"></polygon>
        </g>
    </g>
</svg>