<?xml version="1.0" encoding="UTF-8"?>
<svg width="20px" height="20px" viewBox="0 0 20 20" version="1.1" xmlns="http://www.w3.org/2000/svg" xmlns:xlink="http://www.w3.org/1999/xlink">
    <!-- Generator: Sketch 49.1 (51147) - http://www.bohemiancoding.com/sketch -->
    <title>icons/misc/+</title>
    <desc>Created with Sketch.</desc>
    <defs></defs>
    <g id="icons/misc/+" stroke="none" stroke-width="1" fill="none" fill-rule="evenodd">
        <circle id="Oval" fill="#08378E" cx="10" cy="10" r="10"></circle>
        <path d="M15,10.8482143 C15,10.9970239 14.9479168,11.1235118 14.84375,11.2276786 C14.7395832,11.3318454 14.6130954,11.3839286 14.4642857,11.3839286 L11.3839286,11.3839286 L11.3839286,14.4642857 C11.3839286,14.6130954 11.3318454,14.7395832 11.2276786,14.84375 C11.1235118,14.9479168 10.9970239,15 10.8482143,15 L9.15178571,15 C9.00297608,15 8.87648821,14.9479168 8.77232143,14.84375 C8.66815465,14.7395832 8.61607143,14.6130954 8.61607143,14.4642857 L8.61607143,11.3839286 L5.53571429,11.3839286 C5.38690465,11.3839286 5.26041678,11.3318454 5.15625,11.2276786 C5.05208322,11.1235118 5,10.9970239 5,10.8482143 L5,9.15178571 C5,9.00297608 5.05208322,8.87648821 5.15625,8.77232143 C5.26041678,8.66815465 5.38690465,8.61607143 5.53571429,8.61607143 L8.61607143,8.61607143 L8.61607143,5.53571429 C8.61607143,5.38690465 8.66815465,5.26041678 8.77232143,5.15625 C8.87648821,5.05208322 9.00297608,5 9.15178571,5 L10.8482143,5 C10.9970239,5 11.1235118,5.05208322 11.2276786,5.15625 C11.3318454,5.26041678 11.3839286,5.38690465 11.3839286,5.53571429 L11.3839286,8.61607143 L14.4642857,8.61607143 C14.6130954,8.61607143 14.7395832,8.66815465 14.84375,8.77232143 C14.9479168,8.87648821 15,9.00297608 15,9.15178571 L15,10.8482143 Z" id="plus" fill="#FFFFFF"></path>
    </g>
</svg>