<?xml version="1.0" encoding="UTF-8"?>
<svg width="20px" height="20px" viewBox="0 0 20 20" version="1.1" xmlns="http://www.w3.org/2000/svg" xmlns:xlink="http://www.w3.org/1999/xlink">
    <!-- Generator: Sketch 48.2 (47327) - http://www.bohemiancoding.com/sketch -->
    <title>icons/misc/alertLarge</title>
    <desc>Created with Sketch.</desc>
    <defs></defs>
    <g id="Symbols" stroke="none" stroke-width="1" fill="none" fill-rule="evenodd">
        <g id="icons/misc/alertLarge">
            <circle id="Oval" fill="#2D3FCA" cx="10" cy="10" r="10"></circle>
            <path d="M12.3214286,13.6071429 L12.3214286,14.5357143 C12.3214286,14.661459 12.2754841,14.7702748 12.1835938,14.8621652 C12.0917034,14.9540555 11.9828875,15 11.8571429,15 L8.14285714,15 C8.01711247,15 7.90829659,14.9540555 7.81640625,14.8621652 C7.72451591,14.7702748 7.67857143,14.661459 7.67857143,14.5357143 L7.67857143,13.6071429 C7.67857143,13.4813982 7.72451591,13.3725823 7.81640625,13.280692 C7.90829659,13.1888016 8.01711247,13.1428571 8.14285714,13.1428571 L8.60714286,13.1428571 L8.60714286,10.3571429 L8.14285714,10.3571429 C8.01711247,10.3571429 7.90829659,10.3111984 7.81640625,10.219308 C7.72451591,10.1274177 7.67857143,10.0186018 7.67857143,9.89285714 L7.67857143,8.96428571 C7.67857143,8.83854104 7.72451591,8.72972516 7.81640625,8.63783482 C7.90829659,8.54594448 8.01711247,8.5 8.14285714,8.5 L10.9285714,8.5 C11.0543161,8.5 11.163132,8.54594448 11.2550223,8.63783482 C11.3469127,8.72972516 11.3928571,8.83854104 11.3928571,8.96428571 L11.3928571,13.1428571 L11.8571429,13.1428571 C11.9828875,13.1428571 12.0917034,13.1888016 12.1835938,13.280692 C12.2754841,13.3725823 12.3214286,13.4813982 12.3214286,13.6071429 Z M11.3928571,5.25 L11.3928571,6.64285714 C11.3928571,6.76860182 11.3469127,6.8774177 11.2550223,6.96930804 C11.163132,7.06119838 11.0543161,7.10714286 10.9285714,7.10714286 L9.07142857,7.10714286 C8.9456839,7.10714286 8.83686802,7.06119838 8.74497768,6.96930804 C8.65308734,6.8774177 8.60714286,6.76860182 8.60714286,6.64285714 L8.60714286,5.25 C8.60714286,5.12425532 8.65308734,5.01543945 8.74497768,4.92354911 C8.83686802,4.83165877 8.9456839,4.78571429 9.07142857,4.78571429 L10.9285714,4.78571429 C11.0543161,4.78571429 11.163132,4.83165877 11.2550223,4.92354911 C11.3469127,5.01543945 11.3928571,5.12425532 11.3928571,5.25 Z" id="" fill="#FFFFFF"></path>
        </g>
    </g>
</svg>