<?xml version="1.0" encoding="UTF-8"?>
<svg width="14px" height="14px" viewBox="0 0 14 14" version="1.1" xmlns="http://www.w3.org/2000/svg" xmlns:xlink="http://www.w3.org/1999/xlink">
    <!-- Generator: Sketch 48.2 (47327) - http://www.bohemiancoding.com/sketch -->
    <title>icons/misc/alert</title>
    <desc>Created with Sketch.</desc>
    <defs></defs>
    <g id="Symbols" stroke="none" stroke-width="1" fill="none" fill-rule="evenodd">
        <g id="icons/misc/alert">
            <circle id="Oval" fill="#A8142D" cx="7" cy="7" r="7"></circle>
            <path d="M5.977,3.311 L8.089,3.311 L8.089,5.313 L7.704,8.25 L6.373,8.25 L5.977,5.313 L5.977,3.311 Z M6.989,9.02 C7.29700154,9.02 7.54816569,9.11533238 7.7425,9.306 C7.9368343,9.49666762 8.034,9.74233183 8.034,10.043 C8.034,10.3510015 7.9368343,10.6021657 7.7425,10.7965 C7.54816569,10.9908343 7.29700154,11.088 6.989,11.088 C6.68833183,11.088 6.44083431,10.9908343 6.2465,10.7965 C6.0521657,10.6021657 5.955,10.3510015 5.955,10.043 C5.955,9.74233183 6.0521657,9.49666762 6.2465,9.306 C6.44083431,9.11533238 6.68833183,9.02 6.989,9.02 Z" id="!" fill="#FFFFFF"></path>
        </g>
    </g>
</svg>
