<?xml version="1.0" encoding="UTF-8"?>
<svg width="10px" height="10px" viewBox="0 0 10 10" version="1.1" xmlns="http://www.w3.org/2000/svg" xmlns:xlink="http://www.w3.org/1999/xlink">
    <!-- Generator: Sketch 48.2 (47327) - http://www.bohemiancoding.com/sketch -->
    <title>icons/misc/dropdownSM</title>
    <desc>Created with Sketch.</desc>
    <defs></defs>
    <g id="Symbols" stroke="none" stroke-width="1" fill="none" fill-rule="evenodd">
        <g id="icons/misc/dropdownSM" fill="#0E19A5">
            <path d="M8.27455357,3.48883929 C8.31919665,3.53348237 8.34151786,3.58482114 8.34151786,3.64285714 C8.34151786,3.70089315 8.31919665,3.75223192 8.27455357,3.796875 L5.15401786,6.91741071 C5.10937478,6.96205379 5.058036,6.984375 5,6.984375 C4.941964,6.984375 4.89062522,6.96205379 4.84598214,6.91741071 L1.72544643,3.796875 C1.68080335,3.75223192 1.65848214,3.70089315 1.65848214,3.64285714 C1.65848214,3.58482114 1.68080335,3.53348237 1.72544643,3.48883929 L2.06026786,3.15401786 C2.10491094,3.10937478 2.15624971,3.08705357 2.21428571,3.08705357 C2.27232172,3.08705357 2.32366049,3.10937478 2.36830357,3.15401786 L5,5.78571429 L7.63169643,3.15401786 C7.67633951,3.10937478 7.72767828,3.08705357 7.78571429,3.08705357 C7.84375029,3.08705357 7.89508906,3.10937478 7.93973214,3.15401786 L8.27455357,3.48883929 Z" id=""></path>
        </g>
    </g>
</svg>