<?xml version="1.0" encoding="UTF-8"?>
<svg width="14px" height="18px" viewBox="0 0 14 18" version="1.1" xmlns="http://www.w3.org/2000/svg" xmlns:xlink="http://www.w3.org/1999/xlink">
    <!-- Generator: Sketch 48.2 (47327) - http://www.bohemiancoding.com/sketch -->
    <title>misc/edit</title>
    <desc>Created with Sketch.</desc>
    <defs></defs>
    <g id="Symbols" stroke="none" stroke-width="1" fill="none" fill-rule="evenodd">
        <g id="misc/edit" fill="#2D3FCA">
            <path d="M3.8359375,14 L4.546875,13.2890625 L2.7109375,11.453125 L2,12.1640625 L2,13 L3,13 L3,14 L3.8359375,14 Z M7.921875,6.75 C7.921875,6.63541609 7.86458391,6.578125 7.75,6.578125 C7.69791641,6.578125 7.65364602,6.59635398 7.6171875,6.6328125 L3.3828125,10.8671875 C3.34635398,10.903646 3.328125,10.9479164 3.328125,11 C3.328125,11.1145839 3.38541609,11.171875 3.5,11.171875 C3.55208359,11.171875 3.59635398,11.153646 3.6328125,11.1171875 L7.8671875,6.8828125 C7.90364602,6.84635398 7.921875,6.80208359 7.921875,6.75 Z M7.5,5.25 L10.75,8.5 L4.25,15 L1,15 L1,11.75 L7.5,5.25 Z M12.8359375,6 C12.8359375,6.27604305 12.7395843,6.5104157 12.546875,6.703125 L11.25,8 L8,4.75 L9.296875,3.4609375 C9.48437594,3.26301984 9.71874859,3.1640625 10,3.1640625 C10.276043,3.1640625 10.5130198,3.26301984 10.7109375,3.4609375 L12.546875,5.2890625 C12.7395843,5.49218852 12.8359375,5.72916531 12.8359375,6 Z" id="ï€"></path>
        </g>
    </g>
</svg>