<?xml version="1.0" encoding="UTF-8"?>
<svg width="16px" height="17px" viewBox="0 0 16 17" version="1.1" xmlns="http://www.w3.org/2000/svg" xmlns:xlink="http://www.w3.org/1999/xlink">
    <!-- Generator: Sketch 48.2 (47327) - http://www.bohemiancoding.com/sketch -->
    <title>icons/misc/info</title>
    <desc>Created with Sketch.</desc>
    <defs></defs>
    <g id="Symbols" stroke="none" stroke-width="1" fill="none" fill-rule="evenodd">
        <g id="icons/misc/info" fill="#FFFFFF">
            <path d="M10.5,12.5 L10.5,13.5 C10.5,13.6354173 10.4505213,13.7526037 10.3515625,13.8515625 C10.2526037,13.9505213 10.1354173,14 10,14 L6,14 C5.86458266,14 5.74739633,13.9505213 5.6484375,13.8515625 C5.54947867,13.7526037 5.5,13.6354173 5.5,13.5 L5.5,12.5 C5.5,12.3645827 5.54947867,12.2473963 5.6484375,12.1484375 C5.74739633,12.0494787 5.86458266,12 6,12 L6.5,12 L6.5,9 L6,9 C5.86458266,9 5.74739633,8.95052133 5.6484375,8.8515625 C5.54947867,8.75260367 5.5,8.63541734 5.5,8.5 L5.5,7.5 C5.5,7.36458266 5.54947867,7.24739633 5.6484375,7.1484375 C5.74739633,7.04947867 5.86458266,7 6,7 L9,7 C9.13541734,7 9.25260367,7.04947867 9.3515625,7.1484375 C9.45052133,7.24739633 9.5,7.36458266 9.5,7.5 L9.5,12 L10,12 C10.1354173,12 10.2526037,12.0494787 10.3515625,12.1484375 C10.4505213,12.2473963 10.5,12.3645827 10.5,12.5 Z M9.5,3.5 L9.5,5 C9.5,5.13541734 9.45052133,5.25260367 9.3515625,5.3515625 C9.25260367,5.45052133 9.13541734,5.5 9,5.5 L7,5.5 C6.86458266,5.5 6.74739633,5.45052133 6.6484375,5.3515625 C6.54947867,5.25260367 6.5,5.13541734 6.5,5 L6.5,3.5 C6.5,3.36458266 6.54947867,3.24739633 6.6484375,3.1484375 C6.74739633,3.04947867 6.86458266,3 7,3 L9,3 C9.13541734,3 9.25260367,3.04947867 9.3515625,3.1484375 C9.45052133,3.24739633 9.5,3.36458266 9.5,3.5 Z" id=""></path>
        </g>
    </g>
</svg>