<?xml version="1.0" encoding="UTF-8"?>
<svg width="10px" height="12px" viewBox="0 0 10 12" version="1.1" xmlns="http://www.w3.org/2000/svg" xmlns:xlink="http://www.w3.org/1999/xlink">
    <!-- Generator: Sketch 48.2 (47327) - http://www.bohemiancoding.com/sketch -->
    <title>icons/misc/rightarrow</title>
    <desc>Created with Sketch.</desc>
    <defs></defs>
    <g id="Symbols" stroke="none" stroke-width="1" fill="none" fill-rule="evenodd">
        <g id="icons/misc/rightarrow" fill="#FFFFFF">
            <path d="M6.77455357,4.98883929 C6.81919665,5.03348237 6.84151786,5.08482114 6.84151786,5.14285714 C6.84151786,5.20089315 6.81919665,5.25223192 6.77455357,5.296875 L3.65401786,8.41741071 C3.60937478,8.46205379 3.558036,8.484375 3.5,8.484375 C3.441964,8.484375 3.39062522,8.46205379 3.34598214,8.41741071 L3.01116071,8.08258929 C2.96651763,8.03794621 2.94419643,7.98660743 2.94419643,7.92857143 C2.94419643,7.87053542 2.96651763,7.81919665 3.01116071,7.77455357 L5.64285714,5.14285714 L3.01116071,2.51116071 C2.96651763,2.46651763 2.94419643,2.41517886 2.94419643,2.35714286 C2.94419643,2.29910685 2.96651763,2.24776808 3.01116071,2.203125 L3.34598214,1.86830357 C3.39062522,1.82366049 3.441964,1.80133929 3.5,1.80133929 C3.558036,1.80133929 3.60937478,1.82366049 3.65401786,1.86830357 L6.77455357,4.98883929 Z" id=""></path>
        </g>
    </g>
</svg>