<?xml version="1.0" encoding="UTF-8"?>
<svg width="35px" height="35px" viewBox="0 0 35 35" version="1.1" xmlns="http://www.w3.org/2000/svg" xmlns:xlink="http://www.w3.org/1999/xlink">
    <!-- Generator: Sketch 47.1 (45422) - http://www.bohemiancoding.com/sketch -->
    <title>icons/misc/stop</title>
    <desc>Created with Sketch.</desc>
    <defs>
        <polygon id="path-1" points="17.5 4.66666667 26.574537 8.42546297 30.3333333 17.5 26.574537 26.574537 17.5 30.3333333 8.42546297 26.574537 4.66666667 17.5 8.42546297 8.42546297"></polygon>
    </defs>
    <g id="Symbols" stroke="none" stroke-width="1" fill="none" fill-rule="evenodd">
        <g id="icons/misc/stop">
            <g id="Group-2">
                <g id="Polygon" transform="translate(17.500000, 17.500000) rotate(-22.500000) translate(-17.500000, -17.500000) ">
                    <use fill="#7E7D7D" fill-rule="evenodd" xlink:href="#path-1"></use>
                    <path stroke="#7E7D7D" stroke-width="2" d="M17.5,3.58427447 L27.3399039,7.66009611 L31.4157255,17.5 L27.3399039,27.3399039 L17.5,31.4157255 L7.66009611,27.3399039 L3.58427447,17.5 L7.66009611,7.66009611 L17.5,3.58427447 Z"></path>
                    <path stroke="#F7F7F7" stroke-width="1" d="M17.5,4.12547057 L26.9572205,8.04277954 L30.8745294,17.5 L26.9572205,26.9572205 L17.5,30.8745294 L8.04277954,26.9572205 L4.12547057,17.5 L8.04277954,8.04277954 L17.5,4.12547057 Z"></path>
                </g>
                <path d="M8.00883935,18.0708556 C8.00883935,18.2965566 8.04650231,18.4892254 8.12182936,18.6488676 C8.19715641,18.8085098 8.30207465,18.9392493 8.43658724,19.04109 C8.57109983,19.1429307 8.72578698,19.2172458 8.90065334,19.2640374 C9.07551971,19.3108291 9.26517961,19.3342246 9.46963874,19.3342246 C9.69023938,19.3342246 9.87855418,19.3080767 10.0345888,19.2557801 C10.1906234,19.2034835 10.3170633,19.1360495 10.4139124,19.0534759 C10.5107614,18.9709024 10.5807069,18.8759442 10.623751,18.7685986 C10.666795,18.661253 10.6883167,18.5525328 10.6883167,18.4424347 C10.6883167,18.2167337 10.6385478,18.0502129 10.5390085,17.9428673 C10.4394691,17.8355216 10.3305156,17.7598304 10.2121445,17.7157911 C10.0076854,17.6387225 9.76960167,17.5657836 9.49788624,17.4969723 C9.22617082,17.428161 8.8912395,17.3387077 8.49308224,17.2286096 C8.24557909,17.1625508 8.03977792,17.0758499 7.87567256,16.9685042 C7.7115672,16.8611586 7.58109195,16.7414288 7.48424289,16.6093111 C7.38739383,16.4771934 7.31879344,16.3368205 7.27843966,16.1881881 C7.23808589,16.0395557 7.2179093,15.8881732 7.2179093,15.7340359 C7.2179093,15.4367711 7.27843906,15.1794207 7.39950038,14.961977 C7.52056171,14.7445334 7.68062929,14.5642505 7.87970792,14.421123 C8.07878654,14.2779955 8.3047643,14.1720277 8.55764796,14.1032164 C8.81053163,14.0344051 9.06610171,14 9.32436587,14 C9.62567407,14 9.90949137,14.03991 10.1758263,14.119731 C10.4421612,14.1995521 10.6762096,14.319282 10.8779785,14.4789242 C11.0797474,14.6385664 11.2398149,14.8353637 11.358186,15.0693221 C11.4765571,15.3032805 11.5357417,15.5743929 11.5357417,15.8826675 L10.5269024,15.8826675 C10.4999999,15.5028292 10.3735599,15.2344692 10.1475788,15.0775794 C9.92159764,14.9206897 9.63374502,14.842246 9.2840123,14.842246 C9.16564122,14.842246 9.04458171,14.8546318 8.92083013,14.8794039 C8.79707855,14.904176 8.68408967,14.9454621 8.58186011,15.0032636 C8.47963054,15.0610651 8.39488888,15.1395088 8.32763259,15.238597 C8.2603763,15.3376853 8.22674865,15.4615438 8.22674865,15.6101762 C8.22674865,15.8193625 8.28996862,15.9831309 8.41641045,16.1014863 C8.54285228,16.2198417 8.70830028,16.3092951 8.91275942,16.369849 C8.93428143,16.3753539 9.01902309,16.3987494 9.16698693,16.4400362 C9.31495078,16.4813229 9.48039878,16.5267377 9.6633359,16.5762818 C9.84627301,16.625826 10.0251721,16.6739932 10.2000384,16.7207848 C10.3749048,16.7675765 10.4999996,16.8019816 10.5753267,16.8240013 C10.7636443,16.8845552 10.9277472,16.9671275 11.0676403,17.0717207 C11.2075334,17.1763138 11.3245576,17.2960437 11.4187164,17.4309138 C11.5128752,17.5657839 11.5828207,17.7102855 11.628555,17.8644228 C11.6742892,18.0185601 11.697156,18.172695 11.697156,18.3268323 C11.697156,18.6571265 11.6312459,18.9392486 11.4994235,19.173207 C11.3676012,19.4071654 11.1940826,19.5984579 10.9788624,19.7470903 C10.7636423,19.8957227 10.518833,20.0044429 10.2444274,20.0732542 C9.97002169,20.1420655 9.6902397,20.1764706 9.40507302,20.1764706 C9.07686231,20.1764706 8.767488,20.1351844 8.47694081,20.0526109 C8.18639363,19.9700373 7.93351376,19.8434265 7.71829362,19.6727745 C7.50307348,19.5021225 7.33089995,19.2833058 7.20176787,19.016318 C7.07263579,18.7493302 7.0053805,18.4341792 7,18.0708556 L8.00883935,18.0708556 Z M12.0280553,14.1403743 L16.6929285,14.1403743 L16.6929285,15.0321642 L14.8608762,15.0321642 L14.8608762,20.0360963 L13.8520369,20.0360963 L13.8520369,15.0321642 L12.0280553,15.0321642 L12.0280553,14.1403743 Z M19.8162952,14.842246 C19.5096065,14.842246 19.2446206,14.9055514 19.0213297,15.0321642 C18.7980389,15.158777 18.6164496,15.3280502 18.4765565,15.539989 C18.3366634,15.7519278 18.2330903,15.9927637 18.165834,16.2625039 C18.0985777,16.5322442 18.06495,16.8074852 18.06495,17.0882353 C18.06495,17.3689854 18.0985777,17.6442264 18.165834,17.9139667 C18.2330903,18.1837069 18.3366634,18.4245428 18.4765565,18.6364816 C18.6164496,18.8484204 18.7980389,19.0176936 19.0213297,19.1443064 C19.2446206,19.2709192 19.5096065,19.3342246 19.8162952,19.3342246 C20.1229839,19.3342246 20.3879697,19.2709192 20.6112606,19.1443064 C20.8345515,19.0176936 21.0161407,18.8484204 21.1560338,18.6364816 C21.2959269,18.4245428 21.3995,18.1837069 21.4667563,17.9139667 C21.5340126,17.6442264 21.5676403,17.3689854 21.5676403,17.0882353 C21.5676403,16.8074852 21.5340126,16.5322442 21.4667563,16.2625039 C21.3995,15.9927637 21.2959269,15.7519278 21.1560338,15.539989 C21.0161407,15.3280502 20.8345515,15.158777 20.6112606,15.0321642 C20.3879697,14.9055514 20.1229839,14.842246 19.8162952,14.842246 Z M19.8162952,14 C20.2467354,14 20.6327808,14.0825723 20.9744427,14.2477194 C21.3161047,14.4128665 21.6053024,14.6358117 21.8420446,14.9165618 C22.0787867,15.1973119 22.260376,15.5248487 22.3868178,15.8991821 C22.5132597,16.2735156 22.5764796,16.6698626 22.5764796,17.0882353 C22.5764796,17.5121128 22.5132597,17.9112123 22.3868178,18.2855458 C22.260376,18.6598792 22.0787867,18.987416 21.8420446,19.2681661 C21.6053024,19.5489162 21.3161047,19.7704852 20.9744427,19.9328798 C20.6327808,20.0952745 20.2467354,20.1764706 19.8162952,20.1764706 C19.3858549,20.1764706 18.9998095,20.0952745 18.6581476,19.9328798 C18.3164856,19.7704852 18.0272879,19.5489162 17.7905457,19.2681661 C17.5538036,18.987416 17.3722143,18.6598792 17.2457725,18.2855458 C17.1193307,17.9112123 17.0561107,17.5121128 17.0561107,17.0882353 C17.0561107,16.6698626 17.1193307,16.2735156 17.2457725,15.8991821 C17.3722143,15.5248487 17.5538036,15.1973119 17.7905457,14.9165618 C18.0272879,14.6358117 18.3164856,14.4128665 18.6581476,14.2477194 C18.9998095,14.0825723 19.3858549,14 19.8162952,14 Z M23.4965411,14.1403743 L26.0388163,14.1403743 C26.4477346,14.1403743 26.7813208,14.2009274 27.0395849,14.3220352 C27.2978491,14.4431431 27.4969247,14.5945257 27.6368178,14.7761875 C27.7767109,14.9578493 27.8722134,15.1560228 27.9233282,15.3707141 C27.974443,15.5854053 28,15.7835788 28,15.9652406 C28,16.1469024 27.974443,16.3436998 27.9233282,16.5556386 C27.8722134,16.7675773 27.7767109,16.9643747 27.6368178,17.1460365 C27.4969247,17.3276983 27.2978491,17.4777047 27.0395849,17.5960601 C26.7813208,17.7144155 26.4477346,17.7735923 26.0388163,17.7735923 L24.5053805,17.7735923 L24.5053805,20.0360963 L23.4965411,20.0360963 L23.4965411,14.1403743 Z M24.5053805,16.9313463 L25.9823213,16.9313463 C26.0953119,16.9313463 26.210991,16.9148319 26.329362,16.8818025 C26.4477331,16.848773 26.5566867,16.795101 26.656226,16.7207848 C26.7557653,16.6464686 26.8364716,16.5473819 26.8983474,16.4235215 C26.9602232,16.2996612 26.9911606,16.14415 26.9911606,15.9569833 C26.9911606,15.7643117 26.9642585,15.6046719 26.9104535,15.4780591 C26.8566485,15.3514464 26.7840128,15.2509834 26.6925442,15.1766672 C26.6010756,15.102351 26.4961574,15.0514314 26.3777863,15.0239069 C26.2594152,14.9963824 26.1329753,14.9826203 25.9984627,14.9826203 L24.5053805,14.9826203 L24.5053805,16.9313463 Z" id="STOP" fill="#F7F7F7"></path>
            </g>
        </g>
    </g>
</svg>