<?xml version="1.0" encoding="UTF-8"?>
<svg width="16px" height="17px" viewBox="0 0 16 17" version="1.1" xmlns="http://www.w3.org/2000/svg" xmlns:xlink="http://www.w3.org/1999/xlink">
    <!-- Generator: Sketch 48.2 (47327) - http://www.bohemiancoding.com/sketch -->
    <title>icons/misc/thanks</title>
    <desc>Created with Sketch.</desc>
    <defs></defs>
    <g id="Symbols" stroke="none" stroke-width="1" fill="none" fill-rule="evenodd">
        <g id="icons/misc/thanks" fill="#FFFFFF">
            <path d="M3.8515625,12.8515625 C3.95052133,12.7526037 4,12.6354173 4,12.5 C4,12.3645827 3.95052133,12.2473963 3.8515625,12.1484375 C3.75260367,12.0494787 3.63541734,12 3.5,12 C3.36458266,12 3.24739633,12.0494787 3.1484375,12.1484375 C3.04947867,12.2473963 3,12.3645827 3,12.5 C3,12.6354173 3.04947867,12.7526037 3.1484375,12.8515625 C3.24739633,12.9505213 3.36458266,13 3.5,13 C3.63541734,13 3.75260367,12.9505213 3.8515625,12.8515625 Z M13,8 C13,7.73437367 12.8984385,7.50130309 12.6953125,7.30078125 C12.4921865,7.10025941 12.260418,7 12,7 L9.25,7 C9.25,6.69791516 9.37499875,6.28255473 9.625,5.75390625 C9.87500125,5.22525777 10,4.8072932 10,4.5 C10,3.98958078 9.9166675,3.61198039 9.75,3.3671875 C9.5833325,3.12239461 9.2500025,3 8.75,3 C8.61458266,3.13541734 8.51562531,3.3567693 8.453125,3.6640625 C8.39062469,3.9713557 8.3111984,4.29817535 8.21484375,4.64453125 C8.1184891,4.99088715 7.96354273,5.27604055 7.75,5.5 C7.63541609,5.61979227 7.43489727,5.85676906 7.1484375,6.2109375 C7.12760406,6.2369793 7.06770883,6.31510352 6.96875,6.4453125 C6.86979117,6.57552148 6.78776074,6.68229125 6.72265625,6.765625 C6.65755176,6.84895875 6.56770891,6.95963473 6.453125,7.09765625 C6.33854109,7.23567777 6.23437547,7.35025996 6.140625,7.44140625 C6.04687453,7.53255254 5.94661512,7.62499953 5.83984375,7.71875 C5.73307238,7.81250047 5.62890676,7.88281227 5.52734375,7.9296875 C5.42578074,7.97656273 5.33333375,8 5.25,8 L5,8 L5,13 L5.25,13 C5.31770867,13 5.3997391,13.0078124 5.49609375,13.0234375 C5.5924484,13.0390626 5.67838504,13.0559895 5.75390625,13.0742188 C5.82942746,13.092448 5.9283848,13.1210936 6.05078125,13.1601563 C6.1731777,13.1992189 6.26432262,13.2291666 6.32421875,13.25 C6.38411488,13.2708334 6.47656187,13.3033852 6.6015625,13.3476563 C6.72656313,13.3919273 6.8020832,13.4192708 6.828125,13.4296875 C7.92708883,13.8098977 8.81770492,14 9.5,14 L10.4453125,14 C11.4453175,14 11.9453125,13.5651085 11.9453125,12.6953125 C11.9453125,12.5598952 11.9322918,12.4140633 11.90625,12.2578125 C12.0625008,12.1744788 12.1861975,12.0377614 12.2773438,11.8476563 C12.36849,11.6575511 12.4140625,11.4661468 12.4140625,11.2734375 C12.4140625,11.0807282 12.367188,10.9010425 12.2734375,10.734375 C12.5494805,10.473957 12.6875,10.1640643 12.6875,9.8046875 C12.6875,9.67447852 12.6614586,9.52994871 12.609375,9.37109375 C12.5572914,9.21223879 12.4921879,9.08854211 12.4140625,9 C12.58073,8.99479164 12.7200515,8.87239703 12.8320312,8.6328125 C12.944011,8.39322797 13,8.18229258 13,8 Z M14,7.9921875 C14,8.45573148 13.8723971,8.88020641 13.6171875,9.265625 C13.6640627,9.43750086 13.6875,9.61718656 13.6875,9.8046875 C13.6875,10.2057312 13.5885427,10.5807274 13.390625,10.9296875 C13.4062501,11.039063 13.4140625,11.1510411 13.4140625,11.265625 C13.4140625,11.7916693 13.2578141,12.2552063 12.9453125,12.65625 C12.9505209,13.380212 12.7291689,13.9518208 12.28125,14.3710938 C11.8333311,14.7903667 11.2421912,15 10.5078125,15 L9.5,15 C8.9999975,15 8.50651285,14.9414068 8.01953125,14.8242188 C7.53254965,14.7070307 6.9687532,14.5364595 6.328125,14.3125 C5.72395531,14.1041656 5.36458391,14 5.25,14 L3,14 C2.72395695,14 2.48828223,13.9023447 2.29296875,13.7070312 C2.09765527,13.5117178 2,13.276043 2,13 L2,8 C2,7.72395695 2.09765527,7.48828223 2.29296875,7.29296875 C2.48828223,7.09765527 2.72395695,7 3,7 L5.140625,7 C5.32812594,6.87499937 5.6848932,6.47135758 6.2109375,5.7890625 C6.51302234,5.39843555 6.79166539,5.06510555 7.046875,4.7890625 C7.17187563,4.65885352 7.26432262,4.43619949 7.32421875,4.12109375 C7.38411488,3.80598801 7.46354117,3.47656422 7.5625,3.1328125 C7.66145883,2.78906078 7.82291555,2.50781359 8.046875,2.2890625 C8.25000102,2.0963532 8.48437367,2 8.75,2 C9.18750219,2 9.58072742,2.08463457 9.9296875,2.25390625 C10.2786476,2.42317793 10.5442699,2.6874982 10.7265625,3.046875 C10.9088551,3.4062518 11,3.89062195 11,4.5 C11,4.98437742 10.8750013,5.48437242 10.625,6 L12,6 C12.5416694,6 13.0104147,6.19791469 13.40625,6.59375 C13.8020853,6.98958531 14,7.45572648 14,7.9921875 Z" id=""></path>
        </g>
    </g>
</svg>