<?xml version="1.0" encoding="UTF-8"?>
<svg width="168px" height="60px" viewBox="0 0 168 60" version="1.1" xmlns="http://www.w3.org/2000/svg" xmlns:xlink="http://www.w3.org/1999/xlink">
    <!-- Generator: Sketch 49 (51002) - http://www.bohemiancoding.com/sketch -->
    <title>Slice 1</title>
    <desc>Created with Sketch.</desc>
    <defs>
        <polygon id="path-1" points="0.377 0.486 100.154 0.486 100.154 35.94 0.377 35.94"></polygon>
    </defs>
    <g id="Page-1" stroke="none" stroke-width="1" fill="none" fill-rule="evenodd">
        <g id="Primary-IDme-Logo-RGB-white">
            <path d="M8.38,0.201 L5.472,0.201 C1.841,0.201 0,1.287 0,3.429 L0,56.405 C0,58.547 1.841,59.633 5.472,59.633 L8.38,59.633 C12.01,59.633 13.852,58.547 13.852,56.405 L13.852,3.429 C13.852,1.287 12.01,0.201 8.38,0.201" id="Fill-1" fill="#FFFFFE"></path>
            <path d="M43.297,47.674 L34.69,47.674 L34.69,12.102 L43.297,12.102 C54.066,12.102 56.327,21.774 56.327,29.888 C56.327,38.002 54.066,47.674 43.297,47.674 Z M59.666,53.145 C59.666,46.826 63.797,41.477 69.503,39.635 C70.156,36.69 70.489,33.437 70.489,29.888 C70.489,10.738 60.832,0.192 43.297,0.192 L24.605,0.192 C21.993,0.192 20.778,1.408 20.778,4.019 L20.778,55.757 C20.778,58.368 21.993,59.584 24.605,59.584 L43.297,59.584 C49.982,59.584 55.518,58.047 59.814,55.089 C59.727,54.452 59.666,53.806 59.666,53.145 Z" id="Fill-2" fill="#FFFFFE"></path>
            <g id="Group-6" transform="translate(67.000000, 24.000000)">
                <mask id="mask-2" fill="white">
                    <use xlink:href="#path-1"></use>
                </mask>
                <g id="Clip-4"></g>
                <path d="M13.353,29.145 C13.353,32.728 10.448,35.633 6.865,35.633 C3.281,35.633 0.377,32.728 0.377,29.145 C0.377,25.562 3.281,22.657 6.865,22.657 C10.448,22.657 13.353,25.562 13.353,29.145" id="Fill-3" fill="#2D3E51" mask="url(#mask-2)"></path>
                <path d="M86.835,7.385 C86.849,7.541 86.862,7.696 86.864,7.854 C86.864,8.081 86.855,8.313 86.829,8.56 C86.743,9.39 86.59,10.163 86.375,10.859 C84.944,15.499 80.916,16.321 77.432,16.439 C77.905,14.424 78.601,12.45 79.458,10.708 C81.154,7.253 83.283,5.107 85.014,5.106 C85.172,5.106 85.327,5.129 85.485,5.174 C85.552,5.193 85.611,5.225 85.717,5.277 L85.789,5.31 C85.818,5.322 85.847,5.334 85.874,5.352 C85.948,5.399 86.013,5.461 86.085,5.527 L86.144,5.582 C86.166,5.602 86.189,5.622 86.21,5.645 C86.258,5.699 86.298,5.762 86.338,5.823 L86.39,5.902 C86.426,5.954 86.461,6.007 86.493,6.07 C86.512,6.107 86.528,6.148 86.573,6.256 C86.619,6.369 86.666,6.483 86.701,6.607 L86.733,6.751 C86.77,6.9 86.802,7.052 86.822,7.211 L86.835,7.385 Z M99.132,20.04 C98.943,19.959 98.74,19.913 98.531,19.906 C97.645,19.877 97.041,20.225 96.507,21.087 C96.191,21.604 95.88,22.13 95.572,22.656 C94.395,24.661 93.179,26.732 91.412,28.216 C89.012,30.231 85.538,31.174 82.559,30.627 C80.787,30.302 79.522,29.02 78.772,28.002 C77.396,26.132 76.727,23.614 76.835,20.712 C81.22,20.343 94.437,18.389 95.488,8.37 C95.691,6.428 95.138,4.667 93.888,3.279 C92.303,1.519 89.773,0.549 86.765,0.549 C77.95,0.549 69.25,9.769 68.147,20.28 C67.846,23.163 68.205,25.827 69.217,28.199 C68.463,28.897 67.751,29.4 67.044,29.734 C66.306,30.086 65.666,30.157 65.197,29.942 C64.616,29.672 64.381,28.994 64.288,28.474 C63.941,26.549 64.389,24.337 64.919,22.052 C65.232,20.712 65.623,19.315 65.968,18.083 C67.033,14.282 68.136,10.351 67.768,6.38 C67.433,2.744 64.881,0.486 61.108,0.486 C55.818,0.486 52.335,4.261 50.079,7.497 C50.031,5.085 49.456,3.334 48.33,2.164 C47.259,1.05 45.685,0.486 43.653,0.486 C38.464,0.486 35.024,4.112 32.774,7.286 C32.804,6.994 32.834,6.696 32.866,6.399 C33.008,5.038 33.072,3.088 31.987,1.885 C31.34,1.167 30.368,0.804 29.097,0.804 C27.975,0.804 27.695,0.81 26.49,1.009 C26.478,1.01 25.312,1.239 24.869,1.646 C24.092,2.359 24.339,3.342 24.481,3.904 C24.499,3.975 24.515,4.04 24.524,4.095 C24.609,4.638 24.635,5.254 24.605,5.975 C24.443,9.793 23.734,13.608 23.061,16.837 C22.698,18.577 22.288,20.347 21.884,22.094 C20.986,25.97 20.058,29.977 19.582,34.007 C19.531,34.434 19.653,34.84 19.925,35.149 C20.198,35.459 20.583,35.63 21.009,35.631 L21.289,35.633 C24.14,35.671 26.942,35.553 27.602,33.928 C28.331,32.134 28.734,29.952 29.091,28.022 L29.248,27.167 C30.094,22.729 30.833,19.549 32.322,15.461 C33.089,13.354 34.491,11.456 35.625,10.036 C36.998,8.318 38.478,6.636 40.149,6.594 C40.841,6.558 41.291,6.764 41.631,7.215 C43.254,9.38 41.233,16.368 40.371,19.352 C40.184,19.997 40.026,20.542 39.926,20.942 L39.332,23.247 C38.457,26.608 37.553,30.083 37.089,33.598 C37.042,33.957 36.999,34.319 36.962,34.684 L36.923,35.174 L37.288,35.455 C38.024,36.026 43.28,35.227 43.323,35.214 C45.261,34.559 45.683,32.735 45.822,32.136 C46.183,30.585 46.502,29.001 46.809,27.471 L46.831,27.357 C47.41,24.474 48.008,21.491 48.904,18.613 C50.651,13.013 52.981,9.192 55.829,7.256 C57.047,6.426 58.297,6.334 58.865,7.035 C59.849,8.245 59.225,11.521 58.958,12.92 C58.59,14.86 58.119,16.836 57.663,18.745 L57.64,18.843 C57.348,20.06 57.058,21.276 56.788,22.496 C55.955,26.277 55.271,30.964 57.4,33.669 C58.483,35.048 60.159,35.746 62.382,35.746 C64.738,35.746 66.955,34.96 69.358,33.272 C70.02,32.803 70.688,32.258 71.47,31.608 C74.175,34.683 77.248,36 81.681,36 C91.709,36 96.423,29.337 99.097,24.325 C99.434,23.69 99.811,22.957 100.036,22.335 C100.37,21.411 99.972,20.403 99.132,20.04 Z" id="Fill-5" fill="#FFFFFE" mask="url(#mask-2)"></path>
            </g>
        </g>
    </g>
</svg>